<svg viewBox="0 0 155 30" xmlns="http://www.w3.org/2000/svg">
  <polyline transform="translate(0, 28) scale(1,-1)"
                  points="0,1.0 3,1.0 6,1.0 9,1.0 12,1.0 15,1.0 18,1.0 21,1.0 24,1.0 27,1.0 30,1.0 33,1.0 36,1.0 39,1.0 42,4.77 45,15.54 48,2.08 51,6.38 54,4.77 57,2.08 60,12.85 63,9.62 66,6.38 69,3.15 72,3.69 75,2.62 78,8.0 81,14.46 84,6.38 87,5.31 90,3.69 93,4.77 96,11.77 99,6.92 102,12.31 105,6.38 108,3.69 111,1.0 114,29.0 117,18.23 120,11.77 123,8.0 126,9.62 129,2.08 132,1.0 135,1.0 138,1.0 141,1.0 144,1.0 147,1.0 150,1.0 153,1.0 " fill="none" stroke="white" stroke-width="2" />
</svg>