<svg viewBox="0 0 155 30" xmlns="http://www.w3.org/2000/svg">
  <polyline transform="translate(0, 28) scale(1,-1)"
                  points="0,1.0 3,1.0 6,1.0 9,1.0 12,1.0 15,1.0 18,1.0 21,1.0 24,1.0 27,1.0 30,1.0 33,1.0 36,1.0 39,1.0 42,1.0 45,4.77 48,15.54 51,2.08 54,6.38 57,4.77 60,2.08 63,12.85 66,9.62 69,6.38 72,3.15 75,3.69 78,2.62 81,8.0 84,14.46 87,6.38 90,5.31 93,3.69 96,4.77 99,11.77 102,6.92 105,12.31 108,6.38 111,3.69 114,1.0 117,29.0 120,18.23 123,11.77 126,8.0 129,9.62 132,2.08 135,1.0 138,1.0 141,1.0 144,1.0 147,1.0 150,1.0 153,1.0 " fill="none" stroke="white" stroke-width="2" />
</svg>