<svg viewBox="0 0 155 30" xmlns="http://www.w3.org/2000/svg">
  <polyline transform="translate(0, 28) scale(1,-1)"
                  points="0,1.62 3,2.87 6,3.49 9,14.69 12,29.0 15,11.58 18,2.87 21,5.98 24,1.0 27,1.0 30,1.0 33,1.0 36,1.0 39,4.73 42,5.36 45,2.24 48,1.0 51,1.0 54,1.62 57,3.49 60,4.109999999999999 63,4.109999999999999 66,2.87 69,2.24 72,4.109999999999999 75,3.49 78,2.24 81,5.36 84,2.87 87,2.87 90,2.24 93,1.62 96,1.62 99,2.24 102,4.109999999999999 105,1.62 108,3.49 111,2.24 114,5.98 117,5.98 120,17.8 123,1.0 126,14.07 129,10.96 132,22.78 135,7.22 138,3.49 141,10.96 144,9.09 147,7.22 150,1.62 153,1.0 " fill="none" stroke="white" stroke-width="2" />
</svg>