<svg viewBox="0 0 155 30" xmlns="http://www.w3.org/2000/svg">
  <polyline transform="translate(0, 28) scale(1,-1)"
                  points="0,1.0 3,1.0 6,1.0 9,1.0 12,1.0 15,1.0 18,1.0 21,1.0 24,1.0 27,1.0 30,1.0 33,1.0 36,1.0 39,1.0 42,1.0 45,1.0 48,1.0 51,2.79 54,17.09 57,4.57 60,2.79 63,8.74 66,2.19 69,14.7 72,9.34 75,6.96 78,4.57 81,3.98 84,2.79 87,6.36 90,17.68 93,7.55 96,4.57 99,5.17 102,4.57 105,13.51 108,5.17 111,14.11 114,8.74 117,3.98 120,1.0 123,29.0 126,20.66 129,14.11 132,9.94 135,10.53 138,2.19 141,1.0 144,1.0 147,1.0 150,1.0 153,1.0 " fill="none" stroke="white" stroke-width="2" />
</svg>