<svg viewBox="0 0 155 30" xmlns="http://www.w3.org/2000/svg">
  <polyline transform="translate(0, 28) scale(1,-1)"
                  points="0,8.23 3,1.0 6,1.0 9,1.0 12,1.0 15,6.42 18,2.81 21,6.42 24,1.9 27,1.0 30,1.0 33,1.9 36,6.42 39,5.52 42,4.609999999999999 45,2.81 48,7.32 51,2.81 54,2.81 57,5.52 60,5.52 63,4.609999999999999 66,2.81 69,2.81 72,1.9 75,1.9 78,3.71 81,4.609999999999999 84,1.9 87,4.609999999999999 90,3.71 93,8.23 96,21.77 99,10.03 102,8.23 105,23.58 108,29.0 111,17.26 114,3.71 117,9.13 120,19.97 123,10.03 126,1.9 129,1.0 132,1.0 135,6.42 138,25.39 141,7.32 144,6.42 147,15.45 150,1.0 153,11.84 " fill="none" stroke="white" stroke-width="2" />
</svg>