<svg viewBox="0 0 155 30" xmlns="http://www.w3.org/2000/svg">
  <polyline transform="translate(0, 28) scale(1,-1)"
                  points="0,1.0 3,1.0 6,1.0 9,1.0 12,1.0 15,5.8 18,6.6 21,2.6 24,1.0 27,1.0 30,1.8 33,4.2 36,5.0 39,5.0 42,3.4 45,2.6 48,5.0 51,4.2 54,2.6 57,6.6 60,3.4 63,3.4 66,2.6 69,1.8 72,1.8 75,2.6 78,5.0 81,1.8 84,4.2 87,2.6 90,7.4 93,7.4 96,22.6 99,1.0 102,17.8 105,13.8 108,29.0 111,9.0 114,4.2 117,13.8 120,11.4 123,9.0 126,1.8 129,1.0 132,4.2 135,6.6 138,22.6 141,5.0 144,6.6 147,10.6 150,9.0 153,26.6 " fill="none" stroke="white" stroke-width="2" />
</svg>