<svg viewBox="0 0 155 30" xmlns="http://www.w3.org/2000/svg">
  <polyline transform="translate(0, 28) scale(1,-1)"
                  points="0,3.71 3,8.23 6,1.0 9,1.0 12,1.0 15,1.0 18,6.42 21,2.81 24,6.42 27,1.9 30,1.0 33,1.0 36,1.9 39,6.42 42,5.52 45,4.609999999999999 48,2.81 51,7.32 54,2.81 57,2.81 60,5.52 63,5.52 66,4.609999999999999 69,2.81 72,2.81 75,1.9 78,1.9 81,3.71 84,4.609999999999999 87,1.9 90,4.609999999999999 93,3.71 96,8.23 99,21.77 102,10.03 105,8.23 108,23.58 111,29.0 114,17.26 117,3.71 120,9.13 123,19.97 126,10.03 129,1.9 132,1.0 135,1.0 138,6.42 141,25.39 144,7.32 147,6.42 150,15.45 153,1.0 " fill="none" stroke="white" stroke-width="2" />
</svg>