<svg viewBox="0 0 155 30" xmlns="http://www.w3.org/2000/svg">
  <polyline transform="translate(0, 28) scale(1,-1)"
                  points="0,1.0 3,1.0 6,1.0 9,1.0 12,1.0 15,1.0 18,1.0 21,1.0 24,1.0 27,1.0 30,1.0 33,1.0 36,1.0 39,1.0 42,6.13 45,12.67 48,1.0 51,6.6 54,3.8 57,5.2 60,10.8 63,5.67 66,5.2 69,3.8 72,3.33 75,1.47 78,10.33 81,12.67 84,2.4 87,4.73 90,4.73 93,5.2 96,8.93 99,8.469999999999999 102,11.73 105,2.4 108,2.4 111,1.47 114,29.0 117,11.73 120,15.0 123,4.73 126,6.6 129,1.47 132,1.0 135,1.0 138,1.0 141,1.0 144,1.0 147,1.0 150,1.0 153,1.0 " fill="none" stroke="white" stroke-width="2" />
</svg>