<svg viewBox="0 0 155 30" xmlns="http://www.w3.org/2000/svg">
  <polyline transform="translate(0, 28) scale(1,-1)"
                  points="0,1.0 3,1.0 6,1.0 9,1.0 12,1.0 15,1.0 18,1.0 21,1.0 24,1.0 27,1.0 30,1.0 33,1.0 36,1.0 39,1.0 42,17.67 45,8.33 48,2.33 51,8.33 54,4.33 57,15.67 60,7.67 63,10.33 66,5.0 69,3.67 72,3.67 75,5.0 78,19.0 81,11.0 84,5.0 87,3.0 90,8.33 93,13.67 96,7.0 99,15.0 102,9.67 105,4.33 108,1.67 111,29.0 114,17.67 117,19.67 120,15.67 123,11.0 126,3.0 129,1.0 132,1.0 135,1.0 138,1.0 141,1.0 144,1.0 147,1.0 150,1.0 153,1.0 " fill="none" stroke="white" stroke-width="2" />
</svg>