<svg viewBox="0 0 155 30" xmlns="http://www.w3.org/2000/svg">
  <polyline transform="translate(0, 28) scale(1,-1)"
                  points="0,9.13 3,3.71 6,8.23 9,1.0 12,1.0 15,1.0 18,1.0 21,6.42 24,2.81 27,6.42 30,1.9 33,1.0 36,1.0 39,1.9 42,6.42 45,5.52 48,4.609999999999999 51,2.81 54,7.32 57,2.81 60,2.81 63,5.52 66,5.52 69,4.609999999999999 72,2.81 75,2.81 78,1.9 81,1.9 84,3.71 87,4.609999999999999 90,1.9 93,4.609999999999999 96,3.71 99,8.23 102,21.77 105,10.03 108,8.23 111,23.58 114,29.0 117,17.26 120,3.71 123,9.13 126,19.97 129,10.03 132,1.9 135,1.0 138,1.0 141,6.42 144,25.39 147,7.32 150,6.42 153,15.45 " fill="none" stroke="white" stroke-width="2" />
</svg>