<svg viewBox="0 0 155 30" xmlns="http://www.w3.org/2000/svg">
  <polyline transform="translate(0, 28) scale(1,-1)"
                  points="0,1.0 3,1.0 6,1.0 9,1.0 12,4.5 15,3.33 18,3.92 21,1.0 24,1.0 27,1.0 30,1.58 33,5.67 36,3.92 39,2.75 42,2.17 45,4.5 48,2.17 51,2.75 54,4.5 57,3.33 60,3.33 63,1.58 66,2.17 69,1.58 72,2.17 75,2.75 78,2.75 81,3.33 84,2.17 87,5.08 90,4.5 93,17.33 96,2.17 99,7.42 102,14.42 105,20.25 108,9.75 111,2.75 114,10.33 117,9.17 120,6.83 123,1.58 126,1.0 129,2.17 132,3.33 135,19.67 138,3.92 141,3.92 144,9.17 147,1.0 150,19.08 153,29.0 " fill="none" stroke="white" stroke-width="2" />
</svg>