<svg viewBox="0 0 155 30" xmlns="http://www.w3.org/2000/svg">
  <polyline transform="translate(0, 28) scale(1,-1)"
                  points="0,1.0 3,1.0 6,1.0 9,1.0 12,1.0 15,1.0 18,1.0 21,1.0 24,1.0 27,1.0 30,1.0 33,1.0 36,1.0 39,1.0 42,1.0 45,1.0 48,1.0 51,1.0 54,1.0 57,4.77 60,15.54 63,2.08 66,6.38 69,4.77 72,2.08 75,12.85 78,9.62 81,6.38 84,3.15 87,3.69 90,2.62 93,8.0 96,14.46 99,6.38 102,5.31 105,3.69 108,4.77 111,11.77 114,6.92 117,12.31 120,6.38 123,3.69 126,1.0 129,29.0 132,18.23 135,11.77 138,8.0 141,9.62 144,2.08 147,1.0 150,1.0 153,1.0 " fill="none" stroke="white" stroke-width="2" />
</svg>