<svg viewBox="0 0 155 30" xmlns="http://www.w3.org/2000/svg">
  <polyline transform="translate(0, 28) scale(1,-1)"
                  points="0,1.62 3,2.87 6,3.49 9,29.0 12,15.31 15,10.96 18,2.87 21,5.98 24,1.0 27,1.0 30,1.0 33,1.0 36,4.73 39,2.24 42,4.109999999999999 45,2.24 48,1.0 51,1.0 54,1.62 57,4.109999999999999 60,3.49 63,4.109999999999999 66,2.87 69,4.73 72,1.62 75,3.49 78,3.49 81,4.109999999999999 84,3.49 87,2.24 90,2.87 93,1.0 96,1.62 99,3.49 102,3.49 105,1.62 108,2.87 111,3.49 114,5.98 117,15.31 120,7.22 123,4.109999999999999 126,16.560000000000002 129,20.29 132,12.82 135,4.109999999999999 138,6.6 141,13.44 144,4.73 147,4.109999999999999 150,1.62 153,1.0 " fill="none" stroke="white" stroke-width="2" />
</svg>