<svg viewBox="0 0 155 30" xmlns="http://www.w3.org/2000/svg">
  <polyline transform="translate(0, 28) scale(1,-1)"
                  points="0,1.0 3,1.0 6,1.0 9,1.0 12,1.0 15,1.0 18,1.0 21,1.0 24,1.0 27,1.0 30,1.0 33,1.0 36,1.0 39,1.0 42,1.0 45,1.0 48,1.0 51,5.75 54,12.39 57,1.95 60,6.22 63,4.32 66,4.32 69,11.44 72,5.75 75,5.75 78,2.9 81,3.85 84,1.95 87,10.02 90,11.92 93,3.85 96,4.8 99,3.37 102,4.32 105,10.49 108,8.59 111,10.02 114,4.32 117,3.37 120,1.0 123,29.0 126,12.86 129,10.97 132,6.69 135,8.59 138,1.95 141,1.0 144,1.0 147,1.0 150,1.0 153,1.0 " fill="none" stroke="white" stroke-width="2" />
</svg>