<svg viewBox="0 0 155 30" xmlns="http://www.w3.org/2000/svg">
  <polyline transform="translate(0, 28) scale(1,-1)"
                  points="0,1.0 3,1.0 6,1.0 9,1.0 12,1.0 15,1.0 18,1.0 21,1.0 24,1.0 27,1.0 30,1.0 33,1.0 36,1.0 39,1.0 42,1.0 45,1.0 48,1.0 51,6.13 54,12.67 57,1.0 60,6.6 63,3.8 66,5.2 69,10.8 72,5.67 75,5.2 78,3.8 81,3.33 84,1.47 87,10.33 90,12.67 93,2.4 96,4.73 99,4.73 102,5.2 105,8.93 108,8.469999999999999 111,11.73 114,2.4 117,2.4 120,1.47 123,29.0 126,11.73 129,15.0 132,4.73 135,6.6 138,1.47 141,1.0 144,1.0 147,1.0 150,1.0 153,1.0 " fill="none" stroke="white" stroke-width="2" />
</svg>