<svg viewBox="0 0 155 30" xmlns="http://www.w3.org/2000/svg">
  <polyline transform="translate(0, 28) scale(1,-1)"
                  points="0,1.0 3,1.0 6,1.0 9,1.0 12,1.0 15,1.0 18,1.0 21,1.0 24,1.0 27,1.0 30,1.0 33,1.0 36,1.0 39,1.0 42,1.0 45,1.0 48,1.0 51,1.0 54,1.0 57,1.0 60,2.79 63,17.09 66,4.57 69,2.79 72,8.74 75,2.19 78,14.7 81,9.34 84,6.96 87,4.57 90,3.98 93,2.79 96,6.36 99,17.68 102,7.55 105,4.57 108,5.17 111,4.57 114,13.51 117,5.17 120,14.11 123,8.74 126,3.98 129,1.0 132,29.0 135,20.66 138,14.11 141,9.94 144,10.53 147,2.19 150,1.0 153,1.0 " fill="none" stroke="white" stroke-width="2" />
</svg>