<svg viewBox="0 0 155 30" xmlns="http://www.w3.org/2000/svg">
  <polyline transform="translate(0, 28) scale(1,-1)"
                  points="0,1.0 3,1.0 6,1.0 9,1.0 12,1.0 15,1.0 18,1.0 21,1.0 24,1.0 27,1.0 30,1.0 33,1.0 36,1.0 39,1.0 42,1.0 45,1.0 48,1.0 51,1.0 54,1.0 57,6.13 60,12.67 63,1.0 66,6.6 69,3.8 72,5.2 75,10.8 78,5.67 81,5.2 84,3.8 87,3.33 90,1.47 93,10.33 96,12.67 99,2.4 102,4.73 105,4.73 108,5.2 111,8.93 114,8.469999999999999 117,11.73 120,2.4 123,2.4 126,1.47 129,29.0 132,11.73 135,15.0 138,4.73 141,6.6 144,1.47 147,1.0 150,1.0 153,1.0 " fill="none" stroke="white" stroke-width="2" />
</svg>