<svg viewBox="0 0 155 30" xmlns="http://www.w3.org/2000/svg">
  <polyline transform="translate(0, 28) scale(1,-1)"
                  points="0,1.0 3,1.0 6,1.0 9,1.0 12,1.0 15,1.0 18,1.0 21,1.0 24,1.0 27,1.0 30,1.0 33,1.0 36,2.79 39,17.09 42,4.57 45,2.79 48,8.74 51,2.19 54,14.7 57,9.34 60,6.96 63,4.57 66,3.98 69,2.79 72,6.36 75,17.68 78,7.55 81,4.57 84,5.17 87,4.57 90,13.51 93,5.17 96,14.11 99,8.74 102,3.98 105,1.0 108,29.0 111,20.66 114,14.11 117,9.94 120,10.53 123,2.19 126,1.0 129,1.0 132,1.0 135,1.0 138,1.0 141,1.0 144,1.0 147,1.0 150,1.0 153,1.0 " fill="none" stroke="white" stroke-width="2" />
</svg>