<svg viewBox="0 0 155 30" xmlns="http://www.w3.org/2000/svg">
  <polyline transform="translate(0, 28) scale(1,-1)"
                  points="0,1.0 3,1.0 6,1.0 9,1.0 12,1.0 15,1.0 18,1.0 21,1.0 24,1.0 27,1.0 30,1.0 33,1.0 36,1.0 39,1.0 42,1.0 45,1.0 48,1.0 51,1.0 54,2.79 57,17.09 60,4.57 63,2.79 66,8.74 69,2.19 72,14.7 75,9.34 78,6.96 81,4.57 84,3.98 87,2.79 90,6.36 93,17.68 96,7.55 99,4.57 102,5.17 105,4.57 108,13.51 111,5.17 114,14.11 117,8.74 120,3.98 123,1.0 126,29.0 129,20.66 132,14.11 135,9.94 138,10.53 141,2.19 144,1.0 147,1.0 150,1.0 153,1.0 " fill="none" stroke="white" stroke-width="2" />
</svg>