<svg viewBox="0 0 155 30" xmlns="http://www.w3.org/2000/svg">
  <polyline transform="translate(0, 28) scale(1,-1)"
                  points="0,29.0 3,11.58 6,2.87 9,5.98 12,1.0 15,1.0 18,1.0 21,1.0 24,1.0 27,4.73 30,5.36 33,2.24 36,1.0 39,1.0 42,1.62 45,3.49 48,4.109999999999999 51,4.109999999999999 54,2.87 57,2.24 60,4.109999999999999 63,3.49 66,2.24 69,5.36 72,2.87 75,2.87 78,2.24 81,1.62 84,1.62 87,2.24 90,4.109999999999999 93,1.62 96,3.49 99,2.24 102,5.98 105,5.98 108,17.8 111,1.0 114,14.07 117,10.96 120,22.78 123,7.22 126,3.49 129,10.96 132,9.09 135,7.22 138,1.62 141,1.0 144,3.49 147,5.36 150,17.8 153,4.109999999999999 " fill="none" stroke="white" stroke-width="2" />
</svg>