<svg viewBox="0 0 155 30" xmlns="http://www.w3.org/2000/svg">
  <polyline transform="translate(0, 28) scale(1,-1)"
                  points="0,1.0 3,1.0 6,1.0 9,1.0 12,1.0 15,1.0 18,1.0 21,1.0 24,1.0 27,1.0 30,1.0 33,1.0 36,1.0 39,1.0 42,1.0 45,1.0 48,1.0 51,1.0 54,1.0 57,1.0 60,1.0 63,1.0 66,1.0 69,1.0 72,1.0 75,1.0 78,1.0 81,1.0 84,1.0 87,1.0 90,1.0 93,2.1 96,1.0 99,1.0 102,1.0 105,1.0 108,1.0 111,1.0 114,1.0 117,1.0 120,1.0 123,1.0 126,1.0 129,1.0 132,1.0 135,18.02 138,29.0 141,11.43 144,15.82 147,1.8199999999999998 150,3.75 153,8.690000000000001 " fill="none" stroke="white" stroke-width="2" />
</svg>