


  <svg width="155" height="30" aria-hidden="true">
    <defs>
      <linearGradient id="gradient-843367688" x1="0" x2="0" y1="1" y2="0">
        <stop offset="0%" stop-color="var(--contribution-default-bgColor-1)"></stop>
        <stop offset="10%" stop-color="var(--contribution-default-bgColor-2)"></stop>
        <stop offset="25%" stop-color="var(--contribution-default-bgColor-3)"></stop>
        <stop offset="50%" stop-color="var(--contribution-default-bgColor-4)"></stop>
      </linearGradient>
      <mask id="sparkline-843367688" x="0" y="0" width="155" height="28" >
        <polyline transform="translate(0, 28) scale(1,-1)"
                  points="0,1 3,1 6,1 9,1 12,1 15,1 18,1 21,1 24,1 27,2 30,1 33,1 36,1 39,1 42,1 45,1 48,1 51,1 54,1 57,1 60,1 63,1 66,15 69,8 72,3 75,4 78,4 81,6 84,8 87,7 90,3 93,5 96,3 99,3 102,9 105,14 108,3 111,1 114,3 117,7 120,4 123,10 126,6 129,4 132,3 135,4 138,5 141,1 144,23 147,8 150,3 153,1 " fill="transparent" stroke="#8cc665" stroke-width="2"></polyline>
      </mask>
    </defs>

    <g transform="translate(0, -1)">
      <rect x="0" y="-2" width="155" height="30"
            style="stroke: none; fill: url(#gradient-843367688); mask: url(#sparkline-843367688)"></rect>
    </g>
  </svg>
