<svg viewBox="0 0 155 30" xmlns="http://www.w3.org/2000/svg">
  <polyline transform="translate(0, 28) scale(1,-1)"
                  points="0,1.0 3,1.0 6,1.0 9,1.0 12,1.0 15,1.0 18,1.0 21,1.0 24,1.0 27,1.0 30,1.0 33,1.0 36,1.0 39,1.0 42,1.0 45,1.0 48,1.0 51,1.0 54,8.34 57,10.18 60,1.0 63,6.51 66,3.75 69,6.97 72,8.8 75,6.51 78,5.13 81,2.84 84,3.3 87,1.46 90,11.1 93,12.02 96,4.21 99,2.38 102,5.59 105,8.34 108,6.51 111,7.43 114,10.64 117,3.3 120,1.46 123,2.38 126,29.0 129,10.64 132,15.69 135,6.97 138,3.3 141,1.0 144,1.0 147,1.0 150,1.0 153,1.0 " fill="none" stroke="white" stroke-width="2" />
</svg>