<svg viewBox="0 0 155 30" xmlns="http://www.w3.org/2000/svg">
  <polyline transform="translate(0, 28) scale(1,-1)"
                  points="0,3.71 3,8.23 6,1.0 9,1.0 12,1.0 15,1.0 18,6.42 21,2.81 24,5.52 27,2.81 30,1.0 33,1.0 36,1.9 39,5.52 42,4.609999999999999 45,5.52 48,3.71 51,6.42 54,1.9 57,4.609999999999999 60,4.609999999999999 63,5.52 66,4.609999999999999 69,2.81 72,3.71 75,1.0 78,1.9 81,4.609999999999999 84,4.609999999999999 87,1.9 90,3.71 93,4.609999999999999 96,8.23 99,21.77 102,10.03 105,5.52 108,23.58 111,29.0 114,18.16 117,5.52 120,9.13 123,19.06 126,6.42 129,5.52 132,1.9 135,1.0 138,6.42 141,12.74 144,19.97 147,6.42 150,13.65 153,2.81 " fill="none" stroke="white" stroke-width="2" />
</svg>