<svg viewBox="0 0 155 30" xmlns="http://www.w3.org/2000/svg">
  <polyline transform="translate(0, 28) scale(1,-1)"
                  points="0,1.0 3,1.0 6,1.0 9,1.0 12,1.0 15,1.0 18,1.0 21,1.0 24,1.0 27,1.0 30,1.0 33,1.0 36,1.0 39,1.0 42,1.0 45,1.0 48,16.47 51,12.05 54,1.0 57,10.58 60,4.68 63,13.53 66,11.32 69,11.32 72,5.42 75,4.68 78,3.95 81,2.4699999999999998 84,19.42 87,16.47 90,5.42 93,3.21 96,8.370000000000001 99,13.53 102,9.84 105,13.53 108,13.53 111,4.68 114,1.74 117,20.16 120,29.0 123,18.68 126,22.37 129,12.05 132,3.21 135,1.0 138,1.0 141,1.0 144,1.0 147,1.0 150,1.0 153,1.0 " fill="none" stroke="white" stroke-width="2" />
</svg>