<svg viewBox="0 0 155 30" xmlns="http://www.w3.org/2000/svg">
  <polyline transform="translate(0, 28) scale(1,-1)"
                  points="0,1.0 3,1.0 6,1.0 9,1.0 12,1.0 15,1.0 18,1.0 21,1.0 24,1.0 27,1.0 30,1.0 33,1.0 36,1.0 39,1.0 42,1.0 45,1.0 48,1.0 51,1.0 54,1.0 57,1.0 60,5.75 63,12.39 66,1.95 69,6.22 72,4.32 75,4.32 78,11.44 81,5.75 84,5.75 87,2.9 90,3.85 93,1.95 96,10.02 99,11.92 102,3.85 105,4.8 108,3.37 111,4.32 114,10.49 117,8.59 120,10.02 123,4.32 126,3.37 129,1.0 132,29.0 135,12.86 138,10.97 141,6.69 144,8.59 147,1.95 150,1.0 153,1.0 " fill="none" stroke="white" stroke-width="2" />
</svg>