<svg viewBox="0 0 155 30" xmlns="http://www.w3.org/2000/svg">
  <polyline transform="translate(0, 28) scale(1,-1)"
                  points="0,1.0 3,1.0 6,1.0 9,1.0 12,1.0 15,1.0 18,1.0 21,1.0 24,1.0 27,1.0 30,1.0 33,1.0 36,1.0 39,1.0 42,1.0 45,1.0 48,1.0 51,1.0 54,17.67 57,8.33 60,2.33 63,8.33 66,4.33 69,15.67 72,7.67 75,10.33 78,5.0 81,3.67 84,3.67 87,5.0 90,19.0 93,11.0 96,5.0 99,3.0 102,8.33 105,13.67 108,7.0 111,15.0 114,9.67 117,4.33 120,1.67 123,29.0 126,17.67 129,19.67 132,15.67 135,11.0 138,3.0 141,1.0 144,1.0 147,1.0 150,1.0 153,1.0 " fill="none" stroke="white" stroke-width="2" />
</svg>