<svg viewBox="0 0 155 30" xmlns="http://www.w3.org/2000/svg">
  <polyline transform="translate(0, 28) scale(1,-1)"
                  points="0,1.85 3,5.24 6,6.09 9,1.0 12,1.0 15,1.0 18,1.0 21,6.09 24,2.7 27,6.09 30,1.85 33,1.0 36,1.0 39,1.85 42,7.79 45,4.390000000000001 48,4.390000000000001 51,2.7 54,6.09 57,2.7 60,2.7 63,6.09 66,5.24 69,4.390000000000001 72,1.85 75,2.7 78,1.85 81,2.7 84,2.7 87,4.390000000000001 90,4.390000000000001 93,2.7 96,5.24 99,5.24 102,23.91 105,6.09 108,8.64 111,22.21 114,29.0 117,13.73 120,3.55 123,13.73 126,13.73 129,9.48 132,1.85 135,1.0 138,2.7 141,4.390000000000001 144,26.45 147,4.390000000000001 150,6.09 153,14.58 " fill="none" stroke="white" stroke-width="2" />
</svg>