<svg viewBox="0 0 155 30" xmlns="http://www.w3.org/2000/svg">
  <polyline transform="translate(0, 28) scale(1,-1)"
                  points="0,1.0 3,1.0 6,1.0 9,1.0 12,1.0 15,1.0 18,1.0 21,1.0 24,1.0 27,1.0 30,1.0 33,1.0 36,1.0 39,1.0 42,1.0 45,1.0 48,1.0 51,1.0 54,1.0 57,1.0 60,6.13 63,12.67 66,1.0 69,6.6 72,3.8 75,5.2 78,10.8 81,5.67 84,5.2 87,3.8 90,3.33 93,1.47 96,10.33 99,12.67 102,2.4 105,4.73 108,4.73 111,5.2 114,8.93 117,8.469999999999999 120,11.73 123,2.4 126,2.4 129,1.47 132,29.0 135,11.73 138,15.0 141,4.73 144,6.6 147,1.47 150,1.0 153,1.0 " fill="none" stroke="white" stroke-width="2" />
</svg>