<svg viewBox="0 0 155 30" xmlns="http://www.w3.org/2000/svg">
  <polyline transform="translate(0, 28) scale(1,-1)"
                  points="0,29.0 3,13.38 6,5.85 9,2.62 12,5.31 15,1.0 18,1.0 21,1.0 24,1.0 27,4.23 30,2.08 33,4.23 36,1.54 39,1.0 42,1.0 45,1.54 48,4.23 51,3.69 54,3.15 57,2.08 60,4.77 63,2.08 66,2.08 69,3.69 72,3.69 75,3.15 78,2.08 81,2.08 84,1.54 87,1.54 90,2.62 93,3.15 96,1.54 99,3.15 102,2.62 105,5.31 108,13.38 111,6.38 114,5.31 117,14.46 120,17.69 123,10.69 126,2.62 129,5.85 132,12.31 135,6.38 138,1.54 141,1.0 144,1.0 147,4.23 150,15.54 153,4.77 " fill="none" stroke="white" stroke-width="2" />
</svg>