<svg viewBox="0 0 155 30" xmlns="http://www.w3.org/2000/svg">
  <polyline transform="translate(0, 28) scale(1,-1)"
                  points="0,18.82 3,3.55 6,5.24 9,3.55 12,1.0 15,1.0 18,1.0 21,1.0 24,6.09 27,4.390000000000001 30,5.24 33,1.0 36,1.0 39,1.0 42,1.85 45,7.79 48,5.24 51,3.55 54,2.7 57,6.09 60,2.7 63,3.55 66,6.09 69,4.390000000000001 72,4.390000000000001 75,1.85 78,2.7 81,1.85 84,2.7 87,3.55 90,3.55 93,4.390000000000001 96,2.7 99,6.94 102,6.09 105,24.76 108,2.7 111,10.33 114,20.52 117,29.0 120,13.73 123,3.55 126,14.58 129,12.88 132,9.48 135,1.85 138,1.0 141,2.7 144,4.390000000000001 147,28.15 150,5.24 153,5.24 " fill="none" stroke="white" stroke-width="2" />
</svg>