<svg viewBox="0 0 155 30" xmlns="http://www.w3.org/2000/svg">
  <polyline transform="translate(0, 28) scale(1,-1)"
                  points="0,8.23 3,1.0 6,1.0 9,1.0 12,1.0 15,6.42 18,2.81 21,5.52 24,2.81 27,1.0 30,1.0 33,1.9 36,5.52 39,4.609999999999999 42,5.52 45,3.71 48,6.42 51,1.9 54,4.609999999999999 57,4.609999999999999 60,5.52 63,4.609999999999999 66,2.81 69,3.71 72,1.0 75,1.9 78,4.609999999999999 81,4.609999999999999 84,1.9 87,3.71 90,4.609999999999999 93,8.23 96,21.77 99,10.03 102,5.52 105,23.58 108,29.0 111,18.16 114,5.52 117,9.13 120,19.06 123,6.42 126,5.52 129,1.9 132,1.0 135,6.42 138,12.74 141,19.97 144,6.42 147,13.65 150,2.81 153,11.84 " fill="none" stroke="white" stroke-width="2" />
</svg>