<svg viewBox="0 0 155 30" xmlns="http://www.w3.org/2000/svg">
  <polyline transform="translate(0, 28) scale(1,-1)"
                  points="0,1.0 3,1.0 6,1.0 9,1.0 12,1.0 15,1.0 18,1.0 21,1.0 24,1.0 27,1.0 30,1.0 33,1.0 36,1.0 39,16.47 42,12.05 45,1.0 48,10.58 51,4.68 54,13.53 57,11.32 60,11.32 63,5.42 66,4.68 69,3.95 72,2.4699999999999998 75,19.42 78,16.47 81,5.42 84,3.21 87,8.370000000000001 90,13.53 93,9.84 96,13.53 99,13.53 102,4.68 105,1.74 108,20.16 111,29.0 114,18.68 117,22.37 120,12.05 123,3.21 126,1.0 129,1.0 132,1.0 135,1.0 138,1.0 141,1.0 144,1.0 147,1.0 150,1.0 153,1.0 " fill="none" stroke="white" stroke-width="2" />
</svg>