<svg viewBox="0 0 155 30" xmlns="http://www.w3.org/2000/svg">
  <polyline transform="translate(0, 28) scale(1,-1)"
                  points="0,1.0 3,1.0 6,1.0 9,1.0 12,1.0 15,1.0 18,1.0 21,1.0 24,1.0 27,1.0 30,1.0 33,1.0 36,1.0 39,1.0 42,1.0 45,1.0 48,1.0 51,1.0 54,5.75 57,12.39 60,1.95 63,6.22 66,4.32 69,4.32 72,11.44 75,5.75 78,5.75 81,2.9 84,3.85 87,1.95 90,10.02 93,11.92 96,3.85 99,4.8 102,3.37 105,4.32 108,10.49 111,8.59 114,10.02 117,4.32 120,3.37 123,1.0 126,29.0 129,12.86 132,10.97 135,6.69 138,8.59 141,1.95 144,1.0 147,1.0 150,1.0 153,1.0 " fill="none" stroke="white" stroke-width="2" />
</svg>