<svg viewBox="0 0 155 30" xmlns="http://www.w3.org/2000/svg">
  <polyline transform="translate(0, 28) scale(1,-1)"
                  points="0,1.0 3,1.0 6,1.0 9,1.0 12,1.0 15,1.0 18,1.0 21,1.0 24,1.0 27,1.0 30,1.0 33,1.0 36,1.0 39,1.0 42,1.0 45,1.0 48,8.34 51,10.18 54,1.0 57,6.51 60,3.75 63,6.97 66,8.8 69,6.51 72,5.13 75,2.84 78,3.3 81,1.46 84,11.1 87,12.02 90,4.21 93,2.38 96,5.59 99,8.34 102,6.51 105,7.43 108,10.64 111,3.3 114,1.46 117,2.38 120,29.0 123,10.64 126,15.69 129,6.97 132,3.3 135,1.0 138,1.0 141,1.0 144,1.0 147,1.0 150,1.0 153,1.0 " fill="none" stroke="white" stroke-width="2" />
</svg>