<svg viewBox="0 0 155 30" xmlns="http://www.w3.org/2000/svg">
  <polyline transform="translate(0, 28) scale(1,-1)"
                  points="0,1.0 3,1.0 6,1.0 9,1.0 12,1.0 15,1.0 18,1.0 21,1.0 24,1.0 27,1.0 30,1.0 33,1.0 36,1.0 39,1.0 42,1.0 45,1.0 48,1.0 51,1.0 54,1.0 57,1.0 60,1.0 63,1.0 66,16.47 69,12.05 72,1.0 75,10.58 78,4.68 81,13.53 84,11.32 87,11.32 90,5.42 93,4.68 96,3.95 99,2.4699999999999998 102,19.42 105,16.47 108,5.42 111,3.21 114,8.370000000000001 117,13.53 120,9.84 123,13.53 126,13.53 129,4.68 132,1.74 135,20.16 138,29.0 141,18.68 144,22.37 147,12.05 150,3.21 153,1.0 " fill="none" stroke="white" stroke-width="2" />
</svg>