<svg viewBox="0 0 155 30" xmlns="http://www.w3.org/2000/svg">
  <polyline transform="translate(0, 28) scale(1,-1)"
                  points="0,1.0 3,1.0 6,1.0 9,1.0 12,1.0 15,1.0 18,1.0 21,1.0 24,1.0 27,1.0 30,1.0 33,1.0 36,1.0 39,1.0 42,5.75 45,12.39 48,1.95 51,6.22 54,4.32 57,4.32 60,11.44 63,5.75 66,5.75 69,2.9 72,3.85 75,1.95 78,10.02 81,11.92 84,3.85 87,4.8 90,3.37 93,4.32 96,10.49 99,8.59 102,10.02 105,4.32 108,3.37 111,1.0 114,29.0 117,12.86 120,10.97 123,6.69 126,8.59 129,1.95 132,1.0 135,1.0 138,1.0 141,1.0 144,1.0 147,1.0 150,1.0 153,1.0 " fill="none" stroke="white" stroke-width="2" />
</svg>