<svg viewBox="0 0 155 30" xmlns="http://www.w3.org/2000/svg">
  <polyline transform="translate(0, 28) scale(1,-1)"
                  points="0,1.0 3,1.0 6,1.0 9,1.0 12,1.0 15,1.0 18,1.0 21,1.0 24,1.0 27,1.0 30,1.0 33,1.0 36,1.0 39,1.0 42,1.0 45,5.75 48,12.39 51,1.95 54,6.22 57,4.32 60,4.32 63,11.44 66,5.75 69,5.75 72,2.9 75,3.85 78,1.95 81,10.02 84,11.92 87,3.85 90,4.8 93,3.37 96,4.32 99,10.49 102,8.59 105,10.02 108,4.32 111,3.37 114,1.0 117,29.0 120,12.86 123,10.97 126,6.69 129,8.59 132,1.95 135,1.0 138,1.0 141,1.0 144,1.0 147,1.0 150,1.0 153,1.0 " fill="none" stroke="white" stroke-width="2" />
</svg>