<svg viewBox="0 0 155 30" xmlns="http://www.w3.org/2000/svg">
  <polyline transform="translate(0, 28) scale(1,-1)"
                  points="0,15.4 3,3.4 6,7.4 9,1.0 12,1.0 15,1.0 18,1.0 21,1.0 24,5.8 27,6.6 30,2.6 33,1.0 36,1.0 39,1.0 42,4.2 45,5.0 48,5.8 51,3.4 54,2.6 57,5.0 60,4.2 63,1.8 66,6.6 69,4.2 72,3.4 75,1.8 78,2.6 81,1.8 84,2.6 87,4.2 90,2.6 93,4.2 96,2.6 99,7.4 102,5.0 105,24.2 108,1.8 111,9.8 114,19.4 117,29.0 120,11.4 123,4.2 126,13.0 129,12.2 132,9.0 135,1.8 138,1.0 141,2.6 144,4.2 147,26.6 150,5.0 153,5.0 " fill="none" stroke="white" stroke-width="2" />
</svg>