<svg viewBox="0 0 155 30" xmlns="http://www.w3.org/2000/svg">
  <polyline transform="translate(0, 28) scale(1,-1)"
                  points="0,1.0 3,1.0 6,1.0 9,1.0 12,1.0 15,1.0 18,1.0 21,1.0 24,1.0 27,1.0 30,1.0 33,1.0 36,1.0 39,1.0 42,1.0 45,1.0 48,1.0 51,1.0 54,1.0 57,1.0 60,1.0 63,17.67 66,8.33 69,2.33 72,8.33 75,4.33 78,15.67 81,7.67 84,10.33 87,5.0 90,3.67 93,3.67 96,5.0 99,19.0 102,11.0 105,5.0 108,3.0 111,8.33 114,13.67 117,7.0 120,15.0 123,9.67 126,4.33 129,1.67 132,29.0 135,17.67 138,19.67 141,15.67 144,11.0 147,3.0 150,1.0 153,1.0 " fill="none" stroke="white" stroke-width="2" />
</svg>