<svg viewBox="0 0 155 30" xmlns="http://www.w3.org/2000/svg">
  <polyline transform="translate(0, 28) scale(1,-1)"
                  points="0,1.0 3,1.0 6,1.0 9,1.0 12,1.0 15,1.0 18,1.0 21,1.0 24,1.0 27,1.0 30,1.0 33,1.0 36,1.0 39,1.0 42,1.0 45,1.0 48,17.67 51,8.33 54,2.33 57,8.33 60,4.33 63,15.67 66,7.67 69,10.33 72,5.0 75,3.67 78,3.67 81,5.0 84,19.0 87,11.0 90,5.0 93,3.0 96,8.33 99,13.67 102,7.0 105,15.0 108,9.67 111,4.33 114,1.67 117,29.0 120,17.67 123,19.67 126,15.67 129,11.0 132,3.0 135,1.0 138,1.0 141,1.0 144,1.0 147,1.0 150,1.0 153,1.0 " fill="none" stroke="white" stroke-width="2" />
</svg>