<svg viewBox="0 0 155 30" xmlns="http://www.w3.org/2000/svg">
  <polyline transform="translate(0, 28) scale(1,-1)"
                  points="0,14.6 3,3.4 6,7.4 9,1.0 12,1.0 15,1.0 18,1.0 21,1.0 24,5.8 27,6.6 30,2.6 33,1.0 36,1.0 39,1.8 42,4.2 45,5.0 48,5.0 51,3.4 54,2.6 57,5.0 60,4.2 63,2.6 66,6.6 69,3.4 72,3.4 75,2.6 78,1.8 81,1.8 84,2.6 87,5.0 90,1.8 93,4.2 96,2.6 99,7.4 102,7.4 105,22.6 108,1.0 111,17.8 114,13.8 117,29.0 120,9.0 123,4.2 126,13.8 129,11.4 132,9.0 135,1.8 138,1.0 141,4.2 144,6.6 147,22.6 150,5.0 153,6.6 " fill="none" stroke="white" stroke-width="2" />
</svg>