<svg viewBox="0 0 155 30" xmlns="http://www.w3.org/2000/svg">
  <polyline transform="translate(0, 28) scale(1,-1)"
                  points="0,1.0 3,1.0 6,1.0 9,1.0 12,1.0 15,1.0 18,1.0 21,1.0 24,1.0 27,1.0 30,1.0 33,1.0 36,1.0 39,1.0 42,1.0 45,1.0 48,1.0 51,1.0 54,1.0 57,17.67 60,8.33 63,2.33 66,8.33 69,4.33 72,15.67 75,7.67 78,10.33 81,5.0 84,3.67 87,3.67 90,5.0 93,19.0 96,11.0 99,5.0 102,3.0 105,8.33 108,13.67 111,7.0 114,15.0 117,9.67 120,4.33 123,1.67 126,29.0 129,17.67 132,19.67 135,15.67 138,11.0 141,3.0 144,1.0 147,1.0 150,1.0 153,1.0 " fill="none" stroke="white" stroke-width="2" />
</svg>