<svg viewBox="0 0 155 30" xmlns="http://www.w3.org/2000/svg">
  <polyline transform="translate(0, 28) scale(1,-1)"
                  points="0,1.0 3,1.0 6,1.0 9,1.0 12,1.0 15,1.0 18,1.0 21,1.0 24,1.0 27,1.0 30,1.0 33,1.0 36,1.0 39,1.0 42,1.0 45,1.0 48,1.0 51,8.34 54,10.18 57,1.0 60,6.51 63,3.75 66,6.97 69,8.8 72,6.51 75,5.13 78,2.84 81,3.3 84,1.46 87,11.1 90,12.02 93,4.21 96,2.38 99,5.59 102,8.34 105,6.51 108,7.43 111,10.64 114,3.3 117,1.46 120,2.38 123,29.0 126,10.64 129,15.69 132,6.97 135,3.3 138,1.0 141,1.0 144,1.0 147,1.0 150,1.0 153,1.0 " fill="none" stroke="white" stroke-width="2" />
</svg>