<svg viewBox="0 0 155 30" xmlns="http://www.w3.org/2000/svg">
  <polyline transform="translate(0, 28) scale(1,-1)"
                  points="0,1.0 3,1.0 6,1.0 9,1.0 12,1.0 15,1.0 18,1.0 21,1.0 24,1.0 27,1.0 30,1.0 33,1.0 36,1.0 39,1.0 42,1.0 45,1.0 48,1.0 51,1.0 54,1.0 57,1.0 60,1.0 63,5.75 66,12.39 69,1.95 72,6.22 75,4.32 78,4.32 81,11.44 84,5.75 87,5.75 90,2.9 93,3.85 96,1.95 99,10.02 102,11.92 105,3.85 108,4.8 111,3.37 114,4.32 117,10.49 120,8.59 123,10.02 126,4.32 129,3.37 132,1.0 135,29.0 138,12.86 141,10.97 144,6.69 147,8.59 150,1.95 153,1.0 " fill="none" stroke="white" stroke-width="2" />
</svg>