<svg viewBox="0 0 155 30" xmlns="http://www.w3.org/2000/svg">
  <polyline transform="translate(0, 28) scale(1,-1)"
                  points="0,6.5 3,29.0 6,10.0 9,2.5 12,5.0 15,1.0 18,1.0 21,1.0 24,1.0 27,1.0 30,4.0 33,4.5 36,2.0 39,1.0 42,1.0 45,1.0 48,3.0 51,3.5 54,4.0 57,2.5 60,2.0 63,3.5 66,3.0 69,1.5 72,4.5 75,3.0 78,2.5 81,1.5 84,2.0 87,1.5 90,2.0 93,3.0 96,2.0 99,3.0 102,2.0 105,5.0 108,3.5 111,15.5 114,1.5 117,6.5 120,12.5 123,18.5 126,7.5 129,3.0 132,8.5 135,8.0 138,6.0 141,1.5 144,1.0 147,2.0 150,3.0 153,17.0 " fill="none" stroke="white" stroke-width="2" />
</svg>