<svg viewBox="0 0 155 30" xmlns="http://www.w3.org/2000/svg">
  <polyline transform="translate(0, 28) scale(1,-1)"
                  points="0,1.0 3,1.0 6,1.0 9,1.0 12,1.0 15,1.0 18,1.0 21,1.0 24,1.0 27,1.0 30,1.0 33,1.0 36,1.0 39,1.0 42,1.0 45,1.0 48,1.0 51,1.0 54,1.0 57,1.0 60,1.0 63,8.34 66,10.18 69,1.0 72,6.51 75,3.75 78,6.97 81,8.8 84,6.51 87,5.13 90,2.84 93,3.3 96,1.46 99,11.1 102,12.02 105,4.21 108,2.38 111,5.59 114,8.34 117,6.51 120,7.43 123,10.64 126,3.3 129,1.46 132,2.38 135,29.0 138,10.64 141,15.69 144,6.97 147,3.3 150,1.0 153,1.0 " fill="none" stroke="white" stroke-width="2" />
</svg>