<svg viewBox="0 0 155 30" xmlns="http://www.w3.org/2000/svg">
  <polyline transform="translate(0, 28) scale(1,-1)"
                  points="0,1.0 3,1.0 6,1.0 9,1.0 12,4.359999999999999 15,2.12 18,4.359999999999999 21,1.56 24,1.0 27,1.0 30,1.56 33,4.359999999999999 36,3.8 39,3.24 42,2.12 45,4.92 48,2.12 51,2.12 54,3.8 57,3.8 60,3.24 63,2.12 66,2.12 69,1.56 72,1.56 75,2.6799999999999997 78,3.24 81,1.56 84,3.24 87,2.6799999999999997 90,5.48 93,13.88 96,6.6 99,5.48 102,15.0 105,18.36 108,11.08 111,2.6799999999999997 114,6.04 117,12.76 120,6.6 123,1.56 126,1.0 129,1.0 132,4.359999999999999 135,16.119999999999997 138,4.92 141,4.359999999999999 144,9.96 147,1.0 150,7.72 153,29.0 " fill="none" stroke="white" stroke-width="2" />
</svg>