<svg viewBox="0 0 155 30" xmlns="http://www.w3.org/2000/svg">
  <polyline transform="translate(0, 28) scale(1,-1)"
                  points="0,1.0 3,1.0 6,1.0 9,1.0 12,1.0 15,1.0 18,1.0 21,1.0 24,1.0 27,1.0 30,1.0 33,1.0 36,1.0 39,1.0 42,2.79 45,17.09 48,4.57 51,2.79 54,8.74 57,2.19 60,14.7 63,9.34 66,6.96 69,4.57 72,3.98 75,2.79 78,6.36 81,17.68 84,7.55 87,4.57 90,5.17 93,4.57 96,13.51 99,5.17 102,14.11 105,8.74 108,3.98 111,1.0 114,29.0 117,20.66 120,14.11 123,9.94 126,10.53 129,2.19 132,1.0 135,1.0 138,1.0 141,1.0 144,1.0 147,1.0 150,1.0 153,1.0 " fill="none" stroke="white" stroke-width="2" />
</svg>