<svg viewBox="0 0 155 30" xmlns="http://www.w3.org/2000/svg">
  <polyline transform="translate(0, 28) scale(1,-1)"
                  points="0,29.0 3,10.0 6,2.5 9,5.0 12,1.0 15,1.0 18,1.0 21,1.0 24,1.0 27,4.0 30,4.5 33,2.0 36,1.0 39,1.0 42,1.0 45,3.0 48,3.5 51,4.0 54,2.5 57,2.0 60,3.5 63,3.0 66,1.5 69,4.5 72,3.0 75,2.5 78,1.5 81,2.0 84,1.5 87,2.0 90,3.0 93,2.0 96,3.0 99,2.0 102,5.0 105,3.5 108,15.5 111,1.5 114,6.5 117,12.5 120,18.5 123,7.5 126,3.0 129,8.5 132,8.0 135,6.0 138,1.5 141,1.0 144,2.0 147,3.0 150,17.0 153,3.5 " fill="none" stroke="white" stroke-width="2" />
</svg>