<svg viewBox="0 0 155 30" xmlns="http://www.w3.org/2000/svg">
  <polyline transform="translate(0, 28) scale(1,-1)"
                  points="0,3.0 3,2.5 6,6.5 9,29.0 12,10.0 15,2.5 18,5.0 21,1.0 24,1.0 27,1.0 30,1.0 33,1.0 36,4.0 39,4.5 42,2.0 45,1.0 48,1.0 51,1.0 54,3.0 57,3.5 60,4.0 63,2.5 66,2.0 69,3.5 72,3.0 75,1.5 78,4.5 81,3.0 84,2.5 87,1.5 90,2.0 93,1.5 96,2.0 99,3.0 102,2.0 105,3.0 108,2.0 111,5.0 114,3.5 117,15.5 120,1.5 123,6.5 126,12.5 129,18.5 132,7.5 135,3.0 138,8.5 141,8.0 144,6.0 147,1.5 150,1.0 153,2.5 " fill="none" stroke="white" stroke-width="2" />
</svg>