<svg viewBox="0 0 155 30" xmlns="http://www.w3.org/2000/svg">
  <polyline transform="translate(0, 28) scale(1,-1)"
                  points="0,2.87 3,29.0 6,10.8 9,2.4 12,3.33 15,2.4 18,1.0 21,1.0 24,1.0 27,1.0 30,3.8 33,2.87 36,3.33 39,1.0 42,1.0 45,1.0 48,1.47 51,4.73 54,3.33 57,2.4 60,1.9300000000000002 63,3.8 66,1.9300000000000002 69,2.4 72,3.8 75,2.87 78,2.87 81,1.47 84,1.9300000000000002 87,1.47 90,1.9300000000000002 93,2.4 96,2.4 99,2.87 102,1.9300000000000002 105,4.27 108,3.8 111,14.07 114,1.9300000000000002 117,6.13 120,11.73 123,16.4 126,8.0 129,2.4 132,8.469999999999999 135,7.53 138,5.67 141,1.47 144,1.0 147,1.9300000000000002 150,2.87 153,15.93 " fill="none" stroke="white" stroke-width="2" />
</svg>