<svg viewBox="0 0 155 30" xmlns="http://www.w3.org/2000/svg">
  <polyline transform="translate(0, 28) scale(1,-1)"
                  points="0,7.4 3,1.0 6,1.0 9,1.0 12,1.0 15,1.0 18,5.8 21,6.6 24,2.6 27,1.0 30,1.0 33,1.8 36,4.2 39,5.0 42,5.0 45,3.4 48,2.6 51,5.0 54,4.2 57,2.6 60,6.6 63,3.4 66,3.4 69,2.6 72,1.8 75,1.8 78,2.6 81,5.0 84,1.8 87,4.2 90,2.6 93,7.4 96,7.4 99,22.6 102,1.0 105,17.8 108,13.8 111,29.0 114,9.0 117,4.2 120,13.8 123,11.4 126,9.0 129,1.8 132,1.0 135,4.2 138,6.6 141,22.6 144,5.0 147,6.6 150,10.6 153,9.0 " fill="none" stroke="white" stroke-width="2" />
</svg>