<svg viewBox="0 0 155 30" xmlns="http://www.w3.org/2000/svg">
  <polyline transform="translate(0, 28) scale(1,-1)"
                  points="0,29.0 3,15.31 6,10.96 9,2.87 12,5.98 15,1.0 18,1.0 21,1.0 24,1.0 27,4.73 30,2.24 33,4.109999999999999 36,2.24 39,1.0 42,1.0 45,1.62 48,4.109999999999999 51,3.49 54,4.109999999999999 57,2.87 60,4.73 63,1.62 66,3.49 69,3.49 72,4.109999999999999 75,3.49 78,2.24 81,2.87 84,1.0 87,1.62 90,3.49 93,3.49 96,1.62 99,2.87 102,3.49 105,5.98 108,15.31 111,7.22 114,4.109999999999999 117,16.560000000000002 120,20.29 123,12.82 126,4.109999999999999 129,6.6 132,13.44 135,4.73 138,4.109999999999999 141,1.62 144,1.0 147,4.73 150,9.09 153,14.07 " fill="none" stroke="white" stroke-width="2" />
</svg>