<svg viewBox="0 0 155 30" xmlns="http://www.w3.org/2000/svg">
  <polyline transform="translate(0, 28) scale(1,-1)"
                  points="0,1.0 3,3.0 6,2.5 9,6.5 12,29.0 15,10.0 18,2.5 21,5.0 24,1.0 27,1.0 30,1.0 33,1.0 36,1.0 39,4.0 42,4.5 45,2.0 48,1.0 51,1.0 54,1.0 57,3.0 60,3.5 63,4.0 66,2.5 69,2.0 72,3.5 75,3.0 78,1.5 81,4.5 84,3.0 87,2.5 90,1.5 93,2.0 96,1.5 99,2.0 102,3.0 105,2.0 108,3.0 111,2.0 114,5.0 117,3.5 120,15.5 123,1.5 126,6.5 129,12.5 132,18.5 135,7.5 138,3.0 141,8.5 144,8.0 147,6.0 150,1.5 153,1.0 " fill="none" stroke="white" stroke-width="2" />
</svg>