<svg viewBox="0 0 155 30" xmlns="http://www.w3.org/2000/svg">
  <polyline transform="translate(0, 28) scale(1,-1)"
                  points="0,1.0 3,1.0 6,1.0 9,1.0 12,1.0 15,1.0 18,1.0 21,1.0 24,1.0 27,1.0 30,1.0 33,1.0 36,1.0 39,1.0 42,1.0 45,1.0 48,1.0 51,1.0 54,1.0 57,1.0 60,4.77 63,15.54 66,2.08 69,6.38 72,4.77 75,2.08 78,12.85 81,9.62 84,6.38 87,3.15 90,3.69 93,2.62 96,8.0 99,14.46 102,6.38 105,5.31 108,3.69 111,4.77 114,11.77 117,6.92 120,12.31 123,6.38 126,3.69 129,1.0 132,29.0 135,18.23 138,11.77 141,8.0 144,9.62 147,2.08 150,1.0 153,1.0 " fill="none" stroke="white" stroke-width="2" />
</svg>