<svg viewBox="0 0 155 30" xmlns="http://www.w3.org/2000/svg">
  <polyline transform="translate(0, 28) scale(1,-1)"
                  points="0,1.0 3,1.0 6,1.0 9,1.0 12,1.0 15,1.0 18,1.0 21,1.0 24,1.0 27,1.0 30,1.0 33,1.0 36,1.0 39,1.0 42,1.0 45,1.0 48,1.0 51,4.77 54,15.54 57,2.08 60,6.38 63,4.77 66,2.08 69,12.85 72,9.62 75,6.38 78,3.15 81,3.69 84,2.62 87,8.0 90,14.46 93,6.38 96,5.31 99,3.69 102,4.77 105,11.77 108,6.92 111,12.31 114,6.38 117,3.69 120,1.0 123,29.0 126,18.23 129,11.77 132,8.0 135,9.62 138,2.08 141,1.0 144,1.0 147,1.0 150,1.0 153,1.0 " fill="none" stroke="white" stroke-width="2" />
</svg>