<svg viewBox="0 0 155 30" xmlns="http://www.w3.org/2000/svg">
  <polyline transform="translate(0, 28) scale(1,-1)"
                  points="0,1.0 3,1.0 6,1.0 9,1.0 12,1.0 15,1.0 18,1.0 21,1.0 24,1.0 27,1.0 30,1.0 33,1.0 36,1.0 39,1.0 42,1.0 45,1.0 48,1.0 51,1.0 54,1.0 57,1.0 60,1.0 63,1.0 66,17.67 69,8.33 72,2.33 75,8.33 78,4.33 81,15.67 84,7.67 87,10.33 90,5.0 93,3.67 96,3.67 99,5.0 102,19.0 105,11.0 108,5.0 111,3.0 114,8.33 117,13.67 120,7.0 123,15.0 126,9.67 129,4.33 132,1.67 135,29.0 138,17.67 141,19.67 144,15.67 147,11.0 150,3.0 153,1.0 " fill="none" stroke="white" stroke-width="2" />
</svg>