<svg viewBox="0 0 155 30" xmlns="http://www.w3.org/2000/svg">
  <polyline transform="translate(0, 28) scale(1,-1)"
                  points="0,1.0 3,1.0 6,1.0 9,1.0 12,4.82 15,2.27 18,4.18 21,2.27 24,1.0 27,1.0 30,1.6400000000000001 33,4.18 36,3.55 39,4.18 42,2.91 45,4.82 48,1.6400000000000001 51,3.55 54,3.55 57,4.18 60,3.55 63,2.27 66,2.91 69,1.0 72,1.6400000000000001 75,3.55 78,3.55 81,1.6400000000000001 84,2.91 87,3.55 90,6.09 93,15.64 96,7.36 99,4.18 102,16.91 105,20.73 108,13.09 111,4.18 114,6.73 117,13.73 120,4.82 123,4.18 126,1.6400000000000001 129,1.0 132,4.82 135,9.27 138,14.36 141,4.82 144,9.91 147,2.27 150,8.64 153,29.0 " fill="none" stroke="white" stroke-width="2" />
</svg>