<svg viewBox="0 0 155 30" xmlns="http://www.w3.org/2000/svg">
  <polyline transform="translate(0, 28) scale(1,-1)"
                  points="0,1.0 3,1.0 6,1.0 9,1.0 12,1.0 15,1.0 18,1.0 21,1.0 24,1.0 27,1.0 30,1.0 33,1.0 36,1.0 39,1.0 42,8.34 45,10.18 48,1.0 51,6.51 54,3.75 57,6.97 60,8.8 63,6.51 66,5.13 69,2.84 72,3.3 75,1.46 78,11.1 81,12.02 84,4.21 87,2.38 90,5.59 93,8.34 96,6.51 99,7.43 102,10.64 105,3.3 108,1.46 111,2.38 114,29.0 117,10.64 120,15.69 123,6.97 126,3.3 129,1.0 132,1.0 135,1.0 138,1.0 141,1.0 144,1.0 147,1.0 150,1.0 153,1.0 " fill="none" stroke="white" stroke-width="2" />
</svg>