<svg viewBox="0 0 155 30" xmlns="http://www.w3.org/2000/svg">
  <polyline transform="translate(0, 28) scale(1,-1)"
                  points="0,2.56 3,3.07 6,2.56 9,29.0 12,15.0 15,1.52 18,3.59 21,4.109999999999999 24,1.0 27,1.0 30,1.0 33,1.0 36,4.109999999999999 39,2.04 42,4.109999999999999 45,1.52 48,1.0 51,1.0 54,1.52 57,5.15 60,3.07 63,3.07 66,2.04 69,4.109999999999999 72,2.04 75,2.04 78,4.109999999999999 81,3.59 84,3.07 87,1.52 90,2.04 93,1.52 96,2.04 99,2.04 102,3.07 105,3.07 108,2.04 111,3.59 114,3.59 117,15.0 120,4.109999999999999 123,5.67 126,13.96 129,18.11 132,8.780000000000001 135,2.56 138,8.780000000000001 141,8.780000000000001 144,6.19 147,1.52 150,1.0 153,2.04 " fill="none" stroke="white" stroke-width="2" />
</svg>