<svg viewBox="0 0 155 30" xmlns="http://www.w3.org/2000/svg">
  <polyline transform="translate(0, 28) scale(1,-1)"
                  points="0,15.45 3,3.71 6,8.23 9,1.0 12,1.0 15,1.0 18,1.0 21,6.42 24,2.81 27,5.52 30,2.81 33,1.0 36,1.0 39,1.9 42,5.52 45,4.609999999999999 48,5.52 51,3.71 54,6.42 57,1.9 60,4.609999999999999 63,4.609999999999999 66,5.52 69,4.609999999999999 72,2.81 75,3.71 78,1.0 81,1.9 84,4.609999999999999 87,4.609999999999999 90,1.9 93,3.71 96,4.609999999999999 99,8.23 102,21.77 105,10.03 108,5.52 111,23.58 114,29.0 117,18.16 120,5.52 123,9.13 126,19.06 129,6.42 132,5.52 135,1.9 138,1.0 141,6.42 144,12.74 147,19.97 150,6.42 153,13.65 " fill="none" stroke="white" stroke-width="2" />
</svg>