<svg viewBox="0 0 155 30" xmlns="http://www.w3.org/2000/svg">
  <polyline transform="translate(0, 28) scale(1,-1)"
                  points="0,3.55 3,1.0 6,1.0 9,1.0 12,1.0 15,6.09 18,4.390000000000001 21,5.24 24,1.0 27,1.0 30,1.0 33,1.85 36,7.79 39,5.24 42,3.55 45,2.7 48,6.09 51,2.7 54,3.55 57,6.09 60,4.390000000000001 63,4.390000000000001 66,1.85 69,2.7 72,1.85 75,2.7 78,3.55 81,3.55 84,4.390000000000001 87,2.7 90,6.94 93,6.09 96,24.76 99,2.7 102,10.33 105,20.52 108,29.0 111,13.73 114,3.55 117,14.58 120,12.88 123,9.48 126,1.85 129,1.0 132,2.7 135,4.390000000000001 138,28.15 141,5.24 144,5.24 147,12.88 150,1.0 153,27.3 " fill="none" stroke="white" stroke-width="2" />
</svg>