<svg viewBox="0 0 155 30" xmlns="http://www.w3.org/2000/svg">
  <polyline transform="translate(0, 28) scale(1,-1)"
                  points="0,23.11 3,29.0 6,12.79 9,3.21 12,6.89 15,1.0 18,1.0 21,1.0 24,1.0 27,5.42 30,1.74 33,5.42 36,2.4699999999999998 39,1.0 42,1.0 45,1.74 48,3.95 51,4.68 54,4.68 57,3.21 60,5.42 63,1.74 66,3.95 69,3.21 72,5.42 75,3.21 78,3.21 81,2.4699999999999998 84,1.74 87,1.74 90,3.21 93,4.68 96,1.0 99,3.95 102,3.95 105,6.16 108,18.68 111,8.370000000000001 114,1.74 117,21.63 120,17.21 123,16.47 126,8.370000000000001 129,9.84 132,12.05 135,6.16 138,7.63 141,1.74 144,1.0 147,4.68 150,8.370000000000001 153,18.68 " fill="none" stroke="white" stroke-width="2" />
</svg>