<svg viewBox="0 0 155 30" xmlns="http://www.w3.org/2000/svg">
  <polyline transform="translate(0, 28) scale(1,-1)"
                  points="0,2.87 3,2.4 6,2.87 9,29.0 12,10.8 15,2.4 18,3.33 21,2.4 24,1.0 27,1.0 30,1.0 33,1.0 36,3.8 39,2.87 42,3.33 45,1.0 48,1.0 51,1.0 54,1.47 57,4.73 60,3.33 63,2.4 66,1.9300000000000002 69,3.8 72,1.9300000000000002 75,2.4 78,3.8 81,2.87 84,2.87 87,1.47 90,1.9300000000000002 93,1.47 96,1.9300000000000002 99,2.4 102,2.4 105,2.87 108,1.9300000000000002 111,4.27 114,3.8 117,14.07 120,1.9300000000000002 123,6.13 126,11.73 129,16.4 132,8.0 135,2.4 138,8.469999999999999 141,7.53 144,5.67 147,1.47 150,1.0 153,2.4 " fill="none" stroke="white" stroke-width="2" />
</svg>