<svg viewBox="0 0 155 30" xmlns="http://www.w3.org/2000/svg">
  <polyline transform="translate(0, 28) scale(1,-1)"
                  points="0,2.62 3,1.54 6,3.15 9,29.0 12,13.38 15,5.85 18,2.62 21,5.31 24,1.0 27,1.0 30,1.0 33,1.0 36,4.23 39,2.08 42,4.23 45,1.54 48,1.0 51,1.0 54,1.54 57,4.23 60,3.69 63,3.15 66,2.08 69,4.77 72,2.08 75,2.08 78,3.69 81,3.69 84,3.15 87,2.08 90,2.08 93,1.54 96,1.54 99,2.62 102,3.15 105,1.54 108,3.15 111,2.62 114,5.31 117,13.38 120,6.38 123,5.31 126,14.46 129,17.69 132,10.69 135,2.62 138,5.85 141,12.31 144,6.38 147,1.54 150,1.0 153,1.0 " fill="none" stroke="white" stroke-width="2" />
</svg>