<svg viewBox="0 0 155 30" xmlns="http://www.w3.org/2000/svg">
  <polyline transform="translate(0, 28) scale(1,-1)"
                  points="0,1.0 3,1.0 6,1.0 9,1.0 12,1.0 15,1.0 18,1.0 21,1.0 24,1.0 27,1.0 30,1.0 33,1.0 36,1.0 39,1.0 42,1.0 45,1.0 48,5.75 51,12.39 54,1.95 57,6.22 60,4.32 63,4.32 66,11.44 69,5.75 72,5.75 75,2.9 78,3.85 81,1.95 84,10.02 87,11.92 90,3.85 93,4.8 96,3.37 99,4.32 102,10.49 105,8.59 108,10.02 111,4.32 114,3.37 117,1.0 120,29.0 123,12.86 126,10.97 129,6.69 132,8.59 135,1.95 138,1.0 141,1.0 144,1.0 147,1.0 150,1.0 153,1.0 " fill="none" stroke="white" stroke-width="2" />
</svg>