<svg viewBox="0 0 155 30" xmlns="http://www.w3.org/2000/svg">
  <polyline transform="translate(0, 28) scale(1,-1)"
                  points="0,2.87 3,3.49 6,14.69 9,29.0 12,11.58 15,2.87 18,5.98 21,1.0 24,1.0 27,1.0 30,1.0 33,1.0 36,4.73 39,5.36 42,2.24 45,1.0 48,1.0 51,1.62 54,3.49 57,4.109999999999999 60,4.109999999999999 63,2.87 66,2.24 69,4.109999999999999 72,3.49 75,2.24 78,5.36 81,2.87 84,2.87 87,2.24 90,1.62 93,1.62 96,2.24 99,4.109999999999999 102,1.62 105,3.49 108,2.24 111,5.98 114,5.98 117,17.8 120,1.0 123,14.07 126,10.96 129,22.78 132,7.22 135,3.49 138,10.96 141,9.09 144,7.22 147,1.62 150,1.0 153,3.49 " fill="none" stroke="white" stroke-width="2" />
</svg>