<svg viewBox="0 0 155 30" xmlns="http://www.w3.org/2000/svg">
  <polyline transform="translate(0, 28) scale(1,-1)"
                  points="0,5.24 3,3.55 6,1.0 9,1.0 12,1.0 15,1.0 18,6.09 21,4.390000000000001 24,5.24 27,1.0 30,1.0 33,1.0 36,1.85 39,7.79 42,5.24 45,3.55 48,2.7 51,6.09 54,2.7 57,3.55 60,6.09 63,4.390000000000001 66,4.390000000000001 69,1.85 72,2.7 75,1.85 78,2.7 81,3.55 84,3.55 87,4.390000000000001 90,2.7 93,6.94 96,6.09 99,24.76 102,2.7 105,10.33 108,20.52 111,29.0 114,13.73 117,3.55 120,14.58 123,12.88 126,9.48 129,1.85 132,1.0 135,2.7 138,4.390000000000001 141,28.15 144,5.24 147,5.24 150,12.88 153,1.0 " fill="none" stroke="white" stroke-width="2" />
</svg>