<svg viewBox="0 0 155 30" xmlns="http://www.w3.org/2000/svg">
  <polyline transform="translate(0, 28) scale(1,-1)"
                  points="0,3.49 3,29.0 6,15.31 9,10.96 12,2.87 15,5.98 18,1.0 21,1.0 24,1.0 27,1.0 30,4.73 33,2.24 36,4.109999999999999 39,2.24 42,1.0 45,1.0 48,1.62 51,4.109999999999999 54,3.49 57,4.109999999999999 60,2.87 63,4.73 66,1.62 69,3.49 72,3.49 75,4.109999999999999 78,3.49 81,2.24 84,2.87 87,1.0 90,1.62 93,3.49 96,3.49 99,1.62 102,2.87 105,3.49 108,5.98 111,15.31 114,7.22 117,4.109999999999999 120,16.560000000000002 123,20.29 126,12.82 129,4.109999999999999 132,6.6 135,13.44 138,4.73 141,4.109999999999999 144,1.62 147,1.0 150,4.73 153,9.09 " fill="none" stroke="white" stroke-width="2" />
</svg>