<svg viewBox="0 0 155 30" xmlns="http://www.w3.org/2000/svg">
  <polyline transform="translate(0, 28) scale(1,-1)"
                  points="0,2.87 3,3.49 6,29.0 9,15.31 12,10.96 15,2.87 18,5.98 21,1.0 24,1.0 27,1.0 30,1.0 33,4.73 36,2.24 39,4.109999999999999 42,2.24 45,1.0 48,1.0 51,1.62 54,4.109999999999999 57,3.49 60,4.109999999999999 63,2.87 66,4.73 69,1.62 72,3.49 75,3.49 78,4.109999999999999 81,3.49 84,2.24 87,2.87 90,1.0 93,1.62 96,3.49 99,3.49 102,1.62 105,2.87 108,3.49 111,5.98 114,15.31 117,7.22 120,4.109999999999999 123,16.560000000000002 126,20.29 129,12.82 132,4.109999999999999 135,6.6 138,13.44 141,4.73 144,4.109999999999999 147,1.62 150,1.0 153,4.73 " fill="none" stroke="white" stroke-width="2" />
</svg>