<svg viewBox="0 0 155 30" xmlns="http://www.w3.org/2000/svg">
  <polyline transform="translate(0, 28) scale(1,-1)"
                  points="0,21.77 3,15.45 6,3.71 9,8.23 12,1.0 15,1.0 18,1.0 21,1.0 24,6.42 27,2.81 30,5.52 33,2.81 36,1.0 39,1.0 42,1.9 45,5.52 48,4.609999999999999 51,5.52 54,3.71 57,6.42 60,1.9 63,4.609999999999999 66,4.609999999999999 69,5.52 72,4.609999999999999 75,2.81 78,3.71 81,1.0 84,1.9 87,4.609999999999999 90,4.609999999999999 93,1.9 96,3.71 99,4.609999999999999 102,8.23 105,21.77 108,10.03 111,5.52 114,23.58 117,29.0 120,18.16 123,5.52 126,9.13 129,19.06 132,6.42 135,5.52 138,1.9 141,1.0 144,6.42 147,12.74 150,19.97 153,6.42 " fill="none" stroke="white" stroke-width="2" />
</svg>