<svg viewBox="0 0 155 30" xmlns="http://www.w3.org/2000/svg">
  <polyline transform="translate(0, 28) scale(1,-1)"
                  points="0,1.0 3,1.0 6,1.0 9,1.0 12,1.0 15,1.0 18,1.0 21,1.0 24,1.0 27,1.0 30,1.0 33,1.0 36,1.0 39,1.0 42,1.0 45,1.0 48,1.0 51,1.0 54,1.0 57,8.34 60,10.18 63,1.0 66,6.51 69,3.75 72,6.97 75,8.8 78,6.51 81,5.13 84,2.84 87,3.3 90,1.46 93,11.1 96,12.02 99,4.21 102,2.38 105,5.59 108,8.34 111,6.51 114,7.43 117,10.64 120,3.3 123,1.46 126,2.38 129,29.0 132,10.64 135,15.69 138,6.97 141,3.3 144,1.0 147,1.0 150,1.0 153,1.0 " fill="none" stroke="white" stroke-width="2" />
</svg>