<svg viewBox="0 0 155 30" xmlns="http://www.w3.org/2000/svg">
  <polyline transform="translate(0, 28) scale(1,-1)"
                  points="0,2.5 3,6.5 6,29.0 9,10.0 12,2.5 15,5.0 18,1.0 21,1.0 24,1.0 27,1.0 30,1.0 33,4.0 36,4.5 39,2.0 42,1.0 45,1.0 48,1.0 51,3.0 54,3.5 57,4.0 60,2.5 63,2.0 66,3.5 69,3.0 72,1.5 75,4.5 78,3.0 81,2.5 84,1.5 87,2.0 90,1.5 93,2.0 96,3.0 99,2.0 102,3.0 105,2.0 108,5.0 111,3.5 114,15.5 117,1.5 120,6.5 123,12.5 126,18.5 129,7.5 132,3.0 135,8.5 138,8.0 141,6.0 144,1.5 147,1.0 150,2.0 153,3.0 " fill="none" stroke="white" stroke-width="2" />
</svg>