<svg viewBox="0 0 155 30" xmlns="http://www.w3.org/2000/svg">
  <polyline transform="translate(0, 28) scale(1,-1)"
                  points="0,1.74 3,3.21 6,3.95 9,23.11 12,29.0 15,12.79 18,3.21 21,6.89 24,1.0 27,1.0 30,1.0 33,1.0 36,5.42 39,1.74 42,5.42 45,2.4699999999999998 48,1.0 51,1.0 54,1.74 57,3.95 60,4.68 63,4.68 66,3.21 69,5.42 72,1.74 75,3.95 78,3.21 81,5.42 84,3.21 87,3.21 90,2.4699999999999998 93,1.74 96,1.74 99,3.21 102,4.68 105,1.0 108,3.95 111,3.95 114,6.16 117,18.68 120,8.370000000000001 123,1.74 126,21.63 129,17.21 132,16.47 135,8.370000000000001 138,9.84 141,12.05 144,6.16 147,7.63 150,1.74 153,1.0 " fill="none" stroke="white" stroke-width="2" />
</svg>