<svg viewBox="0 0 155 30" xmlns="http://www.w3.org/2000/svg">
  <polyline transform="translate(0, 28) scale(1,-1)"
                  points="0,1.0 3,1.0 6,1.0 9,1.0 12,1.0 15,1.0 18,1.0 21,1.0 24,1.0 27,1.0 30,1.0 33,1.0 36,1.0 39,1.0 42,1.0 45,1.0 48,1.0 51,1.0 54,6.13 57,12.67 60,1.0 63,6.6 66,3.8 69,5.2 72,10.8 75,5.67 78,5.2 81,3.8 84,3.33 87,1.47 90,10.33 93,12.67 96,2.4 99,4.73 102,4.73 105,5.2 108,8.93 111,8.469999999999999 114,11.73 117,2.4 120,2.4 123,1.47 126,29.0 129,11.73 132,15.0 135,4.73 138,6.6 141,1.47 144,1.0 147,1.0 150,1.0 153,1.0 " fill="none" stroke="white" stroke-width="2" />
</svg>