<svg viewBox="0 0 155 30" xmlns="http://www.w3.org/2000/svg">
  <polyline transform="translate(0, 28) scale(1,-1)"
                  points="0,1.0 3,1.0 6,1.0 9,1.0 12,1.0 15,1.0 18,1.0 21,1.0 24,1.0 27,1.0 30,1.0 33,1.0 36,1.0 39,1.0 42,1.0 45,1.0 48,1.0 51,17.67 54,8.33 57,2.33 60,8.33 63,4.33 66,15.67 69,7.67 72,10.33 75,5.0 78,3.67 81,3.67 84,5.0 87,19.0 90,11.0 93,5.0 96,3.0 99,8.33 102,13.67 105,7.0 108,15.0 111,9.67 114,4.33 117,1.67 120,29.0 123,17.67 126,19.67 129,15.67 132,11.0 135,3.0 138,1.0 141,1.0 144,1.0 147,1.0 150,1.0 153,1.0 " fill="none" stroke="white" stroke-width="2" />
</svg>