<svg viewBox="0 0 155 30" xmlns="http://www.w3.org/2000/svg">
  <polyline transform="translate(0, 28) scale(1,-1)"
                  points="0,1.0 3,1.0 6,1.0 9,1.0 12,1.0 15,1.0 18,1.0 21,1.0 24,1.0 27,1.0 30,1.0 33,1.0 36,1.0 39,1.0 42,1.0 45,1.0 48,1.0 51,16.47 54,12.05 57,1.0 60,10.58 63,4.68 66,13.53 69,11.32 72,11.32 75,5.42 78,4.68 81,3.95 84,2.4699999999999998 87,19.42 90,16.47 93,5.42 96,3.21 99,8.370000000000001 102,13.53 105,9.84 108,13.53 111,13.53 114,4.68 117,1.74 120,20.16 123,29.0 126,18.68 129,22.37 132,12.05 135,3.21 138,1.0 141,1.0 144,1.0 147,1.0 150,1.0 153,1.0 " fill="none" stroke="white" stroke-width="2" />
</svg>