<svg viewBox="0 0 155 30" xmlns="http://www.w3.org/2000/svg">
  <polyline transform="translate(0, 28) scale(1,-1)"
                  points="0,1.0 3,1.0 6,1.0 9,1.0 12,3.51 15,1.8399999999999999 18,3.51 21,1.42 24,1.0 27,1.0 30,1.42 33,4.34 36,2.67 39,2.67 42,1.8399999999999999 45,3.51 48,1.8399999999999999 51,1.8399999999999999 54,3.51 57,3.09 60,2.67 63,1.42 66,1.8399999999999999 69,1.42 72,1.8399999999999999 75,1.8399999999999999 78,2.67 81,2.67 84,1.8399999999999999 87,3.09 90,3.09 93,12.28 96,3.51 99,4.76 102,11.45 105,14.79 108,7.27 111,2.25 114,7.27 117,7.27 120,5.18 123,1.42 126,1.0 129,1.8399999999999999 132,2.67 135,13.54 138,2.67 141,3.51 144,7.69 147,1.0 150,6.01 153,29.0 " fill="none" stroke="white" stroke-width="2" />
</svg>