<svg viewBox="0 0 155 30" xmlns="http://www.w3.org/2000/svg">
  <polyline transform="translate(0, 28) scale(1,-1)"
                  points="0,3.07 3,2.56 6,29.0 9,15.0 12,1.52 15,3.59 18,4.109999999999999 21,1.0 24,1.0 27,1.0 30,1.0 33,4.109999999999999 36,2.04 39,4.109999999999999 42,1.52 45,1.0 48,1.0 51,1.52 54,5.15 57,3.07 60,3.07 63,2.04 66,4.109999999999999 69,2.04 72,2.04 75,4.109999999999999 78,3.59 81,3.07 84,1.52 87,2.04 90,1.52 93,2.04 96,2.04 99,3.07 102,3.07 105,2.04 108,3.59 111,3.59 114,15.0 117,4.109999999999999 120,5.67 123,13.96 126,18.11 129,8.780000000000001 132,2.56 135,8.780000000000001 138,8.780000000000001 141,6.19 144,1.52 147,1.0 150,2.04 153,3.07 " fill="none" stroke="white" stroke-width="2" />
</svg>