<svg viewBox="0 0 155 30" xmlns="http://www.w3.org/2000/svg">
  <polyline transform="translate(0, 28) scale(1,-1)"
                  points="0,1.0 3,1.0 6,1.0 9,1.0 12,1.0 15,1.0 18,1.0 21,1.0 24,1.0 27,1.0 30,1.0 33,1.0 36,1.0 39,1.0 42,1.0 45,1.0 48,1.0 51,1.0 54,1.0 57,5.75 60,12.39 63,1.95 66,6.22 69,4.32 72,4.32 75,11.44 78,5.75 81,5.75 84,2.9 87,3.85 90,1.95 93,10.02 96,11.92 99,3.85 102,4.8 105,3.37 108,4.32 111,10.49 114,8.59 117,10.02 120,4.32 123,3.37 126,1.0 129,29.0 132,12.86 135,10.97 138,6.69 141,8.59 144,1.95 147,1.0 150,1.0 153,1.0 " fill="none" stroke="white" stroke-width="2" />
</svg>