<svg viewBox="0 0 155 30" xmlns="http://www.w3.org/2000/svg">
  <polyline transform="translate(0, 28) scale(1,-1)"
                  points="0,1.0 3,2.87 6,2.4 9,2.87 12,29.0 15,10.8 18,2.4 21,3.33 24,2.4 27,1.0 30,1.0 33,1.0 36,1.0 39,3.8 42,2.87 45,3.33 48,1.0 51,1.0 54,1.0 57,1.47 60,4.73 63,3.33 66,2.4 69,1.9300000000000002 72,3.8 75,1.9300000000000002 78,2.4 81,3.8 84,2.87 87,2.87 90,1.47 93,1.9300000000000002 96,1.47 99,1.9300000000000002 102,2.4 105,2.4 108,2.87 111,1.9300000000000002 114,4.27 117,3.8 120,14.07 123,1.9300000000000002 126,6.13 129,11.73 132,16.4 135,8.0 138,2.4 141,8.469999999999999 144,7.53 147,5.67 150,1.47 153,1.0 " fill="none" stroke="white" stroke-width="2" />
</svg>