<svg viewBox="0 0 155 30" xmlns="http://www.w3.org/2000/svg">
  <polyline transform="translate(0, 28) scale(1,-1)"
                  points="0,1.0 3,1.0 6,1.0 9,1.0 12,1.0 15,1.0 18,1.0 21,1.0 24,1.0 27,1.0 30,1.0 33,1.0 36,1.0 39,1.0 42,1.0 45,1.0 48,1.0 51,1.0 54,1.0 57,1.0 60,1.0 63,2.79 66,17.09 69,4.57 72,2.79 75,8.74 78,2.19 81,14.7 84,9.34 87,6.96 90,4.57 93,3.98 96,2.79 99,6.36 102,17.68 105,7.55 108,4.57 111,5.17 114,4.57 117,13.51 120,5.17 123,14.11 126,8.74 129,3.98 132,1.0 135,29.0 138,20.66 141,14.11 144,9.94 147,10.53 150,2.19 153,1.0 " fill="none" stroke="white" stroke-width="2" />
</svg>