<svg viewBox="0 0 155 30" xmlns="http://www.w3.org/2000/svg">
  <polyline transform="translate(0, 28) scale(1,-1)"
                  points="0,1.0 3,1.0 6,1.0 9,1.0 12,1.0 15,1.0 18,1.0 21,1.0 24,1.0 27,1.0 30,1.0 33,1.0 36,1.0 39,1.0 42,1.0 45,1.0 48,1.0 51,1.0 54,16.47 57,12.05 60,1.0 63,10.58 66,4.68 69,13.53 72,11.32 75,11.32 78,5.42 81,4.68 84,3.95 87,2.4699999999999998 90,19.42 93,16.47 96,5.42 99,3.21 102,8.370000000000001 105,13.53 108,9.84 111,13.53 114,13.53 117,4.68 120,1.74 123,20.16 126,29.0 129,18.68 132,22.37 135,12.05 138,3.21 141,1.0 144,1.0 147,1.0 150,1.0 153,1.0 " fill="none" stroke="white" stroke-width="2" />
</svg>