<svg viewBox="0 0 155 30" xmlns="http://www.w3.org/2000/svg">
  <polyline transform="translate(0, 28) scale(1,-1)"
                  points="0,3.4 3,7.4 6,1.0 9,1.0 12,1.0 15,1.0 18,1.0 21,5.8 24,6.6 27,2.6 30,1.0 33,1.0 36,1.8 39,4.2 42,5.0 45,5.0 48,3.4 51,2.6 54,5.0 57,4.2 60,2.6 63,6.6 66,3.4 69,3.4 72,2.6 75,1.8 78,1.8 81,2.6 84,5.0 87,1.8 90,4.2 93,2.6 96,7.4 99,7.4 102,22.6 105,1.0 108,17.8 111,13.8 114,29.0 117,9.0 120,4.2 123,13.8 126,11.4 129,9.0 132,1.8 135,1.0 138,4.2 141,6.6 144,22.6 147,5.0 150,6.6 153,10.6 " fill="none" stroke="white" stroke-width="2" />
</svg>