<svg viewBox="0 0 155 30" xmlns="http://www.w3.org/2000/svg">
  <polyline transform="translate(0, 28) scale(1,-1)"
                  points="0,1.0 3,1.0 6,1.0 9,1.0 12,5.8 15,1.8 18,5.8 21,2.6 24,1.0 27,1.0 30,1.8 33,4.2 36,5.0 39,5.0 42,3.4 45,5.8 48,1.8 51,4.2 54,3.4 57,5.8 60,3.4 63,3.4 66,2.6 69,1.8 72,1.8 75,3.4 78,5.0 81,1.0 84,4.2 87,4.2 90,6.6 93,20.2 96,9.0 99,1.8 102,23.4 105,18.6 108,17.8 111,9.0 114,10.6 117,13.0 120,6.6 123,8.2 126,1.8 129,1.0 132,5.0 135,9.0 138,20.2 141,5.8 144,7.4 147,8.2 150,9.8 153,29.0 " fill="none" stroke="white" stroke-width="2" />
</svg>