<svg viewBox="0 0 155 30" xmlns="http://www.w3.org/2000/svg">
  <polyline transform="translate(0, 28) scale(1,-1)"
                  points="0,1.0 3,1.0 6,1.0 9,1.0 12,1.0 15,1.0 18,1.0 21,1.0 24,1.0 27,1.0 30,1.0 33,1.0 36,1.0 39,1.0 42,1.0 45,1.0 48,2.79 51,17.09 54,4.57 57,2.79 60,8.74 63,2.19 66,14.7 69,9.34 72,6.96 75,4.57 78,3.98 81,2.79 84,6.36 87,17.68 90,7.55 93,4.57 96,5.17 99,4.57 102,13.51 105,5.17 108,14.11 111,8.74 114,3.98 117,1.0 120,29.0 123,20.66 126,14.11 129,9.94 132,10.53 135,2.19 138,1.0 141,1.0 144,1.0 147,1.0 150,1.0 153,1.0 " fill="none" stroke="white" stroke-width="2" />
</svg>