<svg viewBox="0 0 155 30" xmlns="http://www.w3.org/2000/svg">
  <polyline transform="translate(0, 28) scale(1,-1)"
                  points="0,1.0 3,1.0 6,1.0 9,1.0 12,1.0 15,5.8 18,6.6 21,2.6 24,1.0 27,1.0 30,1.0 33,4.2 36,5.0 39,5.8 42,3.4 45,2.6 48,5.0 51,4.2 54,1.8 57,6.6 60,4.2 63,3.4 66,1.8 69,2.6 72,1.8 75,2.6 78,4.2 81,2.6 84,4.2 87,2.6 90,7.4 93,5.0 96,24.2 99,1.8 102,9.8 105,19.4 108,29.0 111,11.4 114,4.2 117,13.0 120,12.2 123,9.0 126,1.8 129,1.0 132,2.6 135,4.2 138,26.6 141,5.0 144,5.0 147,12.2 150,5.8 153,25.0 " fill="none" stroke="white" stroke-width="2" />
</svg>