<svg viewBox="0 0 155 30" xmlns="http://www.w3.org/2000/svg">
  <polyline transform="translate(0, 28) scale(1,-1)"
                  points="0,1.0 3,1.0 6,1.0 9,1.0 12,1.0 15,1.0 18,1.0 21,1.0 24,1.0 27,1.0 30,1.0 33,1.0 36,1.0 39,4.77 42,15.54 45,2.08 48,6.38 51,4.77 54,2.08 57,12.85 60,9.62 63,6.38 66,3.15 69,3.69 72,2.62 75,8.0 78,14.46 81,6.38 84,5.31 87,3.69 90,4.77 93,11.77 96,6.92 99,12.31 102,6.38 105,3.69 108,1.0 111,29.0 114,18.23 117,11.77 120,8.0 123,9.62 126,2.08 129,1.0 132,1.0 135,1.0 138,1.0 141,1.0 144,1.0 147,1.0 150,1.0 153,1.0 " fill="none" stroke="white" stroke-width="2" />
</svg>