<svg viewBox="0 0 155 30" xmlns="http://www.w3.org/2000/svg">
  <polyline transform="translate(0, 28) scale(1,-1)"
                  points="0,1.0 3,1.0 6,1.0 9,1.0 12,1.0 15,1.0 18,1.0 21,1.0 24,1.0 27,1.0 30,1.0 33,1.0 36,1.0 39,6.13 42,12.67 45,1.0 48,6.6 51,3.8 54,5.2 57,10.8 60,5.67 63,5.2 66,3.8 69,3.33 72,1.47 75,10.33 78,12.67 81,2.4 84,4.73 87,4.73 90,5.2 93,8.93 96,8.469999999999999 99,11.73 102,2.4 105,2.4 108,1.47 111,29.0 114,11.73 117,15.0 120,4.73 123,6.6 126,1.47 129,1.0 132,1.0 135,1.0 138,1.0 141,1.0 144,1.0 147,1.0 150,1.0 153,1.0 " fill="none" stroke="white" stroke-width="2" />
</svg>