<svg viewBox="0 0 155 30" xmlns="http://www.w3.org/2000/svg">
  <polyline transform="translate(0, 28) scale(1,-1)"
                  points="0,3.55 3,5.24 6,3.55 9,1.0 12,1.0 15,1.0 18,1.0 21,6.09 24,4.390000000000001 27,5.24 30,1.0 33,1.0 36,1.0 39,1.85 42,7.79 45,5.24 48,3.55 51,2.7 54,6.09 57,2.7 60,3.55 63,6.09 66,4.390000000000001 69,4.390000000000001 72,1.85 75,2.7 78,1.85 81,2.7 84,3.55 87,3.55 90,4.390000000000001 93,2.7 96,6.94 99,6.09 102,24.76 105,2.7 108,10.33 111,20.52 114,29.0 117,13.73 120,3.55 123,14.58 126,12.88 129,9.48 132,1.85 135,1.0 138,2.7 141,4.390000000000001 144,28.15 147,5.24 150,5.24 153,12.88 " fill="none" stroke="white" stroke-width="2" />
</svg>