<svg viewBox="0 0 155 30" xmlns="http://www.w3.org/2000/svg">
  <polyline transform="translate(0, 28) scale(1,-1)"
                  points="0,1.0 3,1.0 6,1.0 9,1.0 12,1.0 15,1.0 18,1.0 21,1.0 24,1.0 27,1.0 30,1.0 33,1.0 36,1.0 39,1.0 42,1.0 45,6.13 48,12.67 51,1.0 54,6.6 57,3.8 60,5.2 63,10.8 66,5.67 69,5.2 72,3.8 75,3.33 78,1.47 81,10.33 84,12.67 87,2.4 90,4.73 93,4.73 96,5.2 99,8.93 102,8.469999999999999 105,11.73 108,2.4 111,2.4 114,1.47 117,29.0 120,11.73 123,15.0 126,4.73 129,6.6 132,1.47 135,1.0 138,1.0 141,1.0 144,1.0 147,1.0 150,1.0 153,1.0 " fill="none" stroke="white" stroke-width="2" />
</svg>