<svg viewBox="0 0 155 30" xmlns="http://www.w3.org/2000/svg">
  <polyline transform="translate(0, 28) scale(1,-1)"
                  points="0,1.0 3,1.0 6,1.0 9,1.0 12,1.0 15,1.0 18,1.0 21,1.0 24,1.0 27,1.0 30,1.0 33,1.0 36,1.0 39,1.0 42,1.0 45,1.0 48,1.0 51,1.0 54,1.0 57,16.47 60,12.05 63,1.0 66,10.58 69,4.68 72,13.53 75,11.32 78,11.32 81,5.42 84,4.68 87,3.95 90,2.4699999999999998 93,19.42 96,16.47 99,5.42 102,3.21 105,8.370000000000001 108,13.53 111,9.84 114,13.53 117,13.53 120,4.68 123,1.74 126,20.16 129,29.0 132,18.68 135,22.37 138,12.05 141,3.21 144,1.0 147,1.0 150,1.0 153,1.0 " fill="none" stroke="white" stroke-width="2" />
</svg>