<svg viewBox="0 0 155 30" xmlns="http://www.w3.org/2000/svg">
  <polyline transform="translate(0, 28) scale(1,-1)"
                  points="0,29.0 3,10.8 6,2.4 9,3.33 12,2.4 15,1.0 18,1.0 21,1.0 24,1.0 27,3.8 30,2.87 33,3.33 36,1.0 39,1.0 42,1.0 45,1.47 48,4.73 51,3.33 54,2.4 57,1.9300000000000002 60,3.8 63,1.9300000000000002 66,2.4 69,3.8 72,2.87 75,2.87 78,1.47 81,1.9300000000000002 84,1.47 87,1.9300000000000002 90,2.4 93,2.4 96,2.87 99,1.9300000000000002 102,4.27 105,3.8 108,14.07 111,1.9300000000000002 114,6.13 117,11.73 120,16.4 123,8.0 126,2.4 129,8.469999999999999 132,7.53 135,5.67 138,1.47 141,1.0 144,1.9300000000000002 147,2.87 150,15.93 153,3.33 " fill="none" stroke="white" stroke-width="2" />
</svg>