<svg viewBox="0 0 155 30" xmlns="http://www.w3.org/2000/svg">
  <polyline transform="translate(0, 28) scale(1,-1)"
                  points="0,1.0 3,1.0 6,1.0 9,1.0 12,1.0 15,1.0 18,1.0 21,1.0 24,1.0 27,1.0 30,1.0 33,1.0 36,1.0 39,1.0 42,1.0 45,2.79 48,17.09 51,4.57 54,2.79 57,8.74 60,2.19 63,14.7 66,9.34 69,6.96 72,4.57 75,3.98 78,2.79 81,6.36 84,17.68 87,7.55 90,4.57 93,5.17 96,4.57 99,13.51 102,5.17 105,14.11 108,8.74 111,3.98 114,1.0 117,29.0 120,20.66 123,14.11 126,9.94 129,10.53 132,2.19 135,1.0 138,1.0 141,1.0 144,1.0 147,1.0 150,1.0 153,1.0 " fill="none" stroke="white" stroke-width="2" />
</svg>