<svg viewBox="0 0 155 30" xmlns="http://www.w3.org/2000/svg">
  <polyline transform="translate(0, 28) scale(1,-1)"
                  points="0,3.49 3,14.69 6,29.0 9,11.58 12,2.87 15,5.98 18,1.0 21,1.0 24,1.0 27,1.0 30,1.0 33,4.73 36,5.36 39,2.24 42,1.0 45,1.0 48,1.62 51,3.49 54,4.109999999999999 57,4.109999999999999 60,2.87 63,2.24 66,4.109999999999999 69,3.49 72,2.24 75,5.36 78,2.87 81,2.87 84,2.24 87,1.62 90,1.62 93,2.24 96,4.109999999999999 99,1.62 102,3.49 105,2.24 108,5.98 111,5.98 114,17.8 117,1.0 120,14.07 123,10.96 126,22.78 129,7.22 132,3.49 135,10.96 138,9.09 141,7.22 144,1.62 147,1.0 150,3.49 153,5.36 " fill="none" stroke="white" stroke-width="2" />
</svg>