<svg viewBox="0 0 155 30" xmlns="http://www.w3.org/2000/svg">
  <polyline transform="translate(0, 28) scale(1,-1)"
                  points="0,29.0 3,15.0 6,1.52 9,3.59 12,4.109999999999999 15,1.0 18,1.0 21,1.0 24,1.0 27,4.109999999999999 30,2.04 33,4.109999999999999 36,1.52 39,1.0 42,1.0 45,1.52 48,5.15 51,3.07 54,3.07 57,2.04 60,4.109999999999999 63,2.04 66,2.04 69,4.109999999999999 72,3.59 75,3.07 78,1.52 81,2.04 84,1.52 87,2.04 90,2.04 93,3.07 96,3.07 99,2.04 102,3.59 105,3.59 108,15.0 111,4.109999999999999 114,5.67 117,13.96 120,18.11 123,8.780000000000001 126,2.56 129,8.780000000000001 132,8.780000000000001 135,6.19 138,1.52 141,1.0 144,2.04 147,3.07 150,16.560000000000002 153,3.07 " fill="none" stroke="white" stroke-width="2" />
</svg>