<svg viewBox="0 0 155 30" xmlns="http://www.w3.org/2000/svg">
  <polyline transform="translate(0, 28) scale(1,-1)"
                  points="0,1.0 3,4.359999999999999 6,2.12 9,4.359999999999999 12,1.56 15,1.0 18,1.0 21,1.56 24,4.359999999999999 27,3.8 30,3.24 33,2.12 36,4.92 39,2.12 42,2.12 45,3.8 48,3.8 51,3.24 54,2.12 57,2.12 60,1.56 63,1.56 66,2.6799999999999997 69,3.24 72,1.56 75,3.24 78,2.6799999999999997 81,5.48 84,13.88 87,6.6 90,5.48 93,15.0 96,18.36 99,11.08 102,2.6799999999999997 105,6.04 108,12.76 111,6.6 114,1.56 117,1.0 120,1.0 123,4.359999999999999 126,16.119999999999997 129,4.92 132,4.359999999999999 135,9.96 138,1.0 141,7.72 144,29.0 147,17.24 150,9.4 153,12.76 " fill="none" stroke="white" stroke-width="2" />
</svg>