<svg viewBox="0 0 155 30" xmlns="http://www.w3.org/2000/svg">
  <polyline transform="translate(0, 28) scale(1,-1)"
                  points="0,1.0 3,1.0 6,1.0 9,1.0 12,1.0 15,1.0 18,1.0 21,1.0 24,1.0 27,1.0 30,1.0 33,1.0 36,1.0 39,17.67 42,8.33 45,2.33 48,8.33 51,4.33 54,15.67 57,7.67 60,10.33 63,5.0 66,3.67 69,3.67 72,5.0 75,19.0 78,11.0 81,5.0 84,3.0 87,8.33 90,13.67 93,7.0 96,15.0 99,9.67 102,4.33 105,1.67 108,29.0 111,17.67 114,19.67 117,15.67 120,11.0 123,3.0 126,1.0 129,1.0 132,1.0 135,1.0 138,1.0 141,1.0 144,1.0 147,1.0 150,1.0 153,1.0 " fill="none" stroke="white" stroke-width="2" />
</svg>