<svg viewBox="0 0 155 30" xmlns="http://www.w3.org/2000/svg">
  <polyline transform="translate(0, 28) scale(1,-1)"
                  points="0,3.4 3,7.4 6,1.0 9,1.0 12,1.0 15,1.0 18,1.0 21,5.8 24,6.6 27,2.6 30,1.0 33,1.0 36,1.0 39,4.2 42,5.0 45,5.8 48,3.4 51,2.6 54,5.0 57,4.2 60,1.8 63,6.6 66,4.2 69,3.4 72,1.8 75,2.6 78,1.8 81,2.6 84,4.2 87,2.6 90,4.2 93,2.6 96,7.4 99,5.0 102,24.2 105,1.8 108,9.8 111,19.4 114,29.0 117,11.4 120,4.2 123,13.0 126,12.2 129,9.0 132,1.8 135,1.0 138,2.6 141,4.2 144,26.6 147,5.0 150,5.0 153,12.2 " fill="none" stroke="white" stroke-width="2" />
</svg>