<svg viewBox="0 0 155 30" xmlns="http://www.w3.org/2000/svg">
  <polyline transform="translate(0, 28) scale(1,-1)"
                  points="0,3.15 3,29.0 6,13.38 9,5.85 12,2.62 15,5.31 18,1.0 21,1.0 24,1.0 27,1.0 30,4.23 33,2.08 36,4.23 39,1.54 42,1.0 45,1.0 48,1.54 51,4.23 54,3.69 57,3.15 60,2.08 63,4.77 66,2.08 69,2.08 72,3.69 75,3.69 78,3.15 81,2.08 84,2.08 87,1.54 90,1.54 93,2.62 96,3.15 99,1.54 102,3.15 105,2.62 108,5.31 111,13.38 114,6.38 117,5.31 120,14.46 123,17.69 126,10.69 129,2.62 132,5.85 135,12.31 138,6.38 141,1.54 144,1.0 147,1.0 150,4.23 153,15.54 " fill="none" stroke="white" stroke-width="2" />
</svg>