<svg viewBox="0 0 155 30" xmlns="http://www.w3.org/2000/svg">
  <polyline transform="translate(0, 28) scale(1,-1)"
                  points="0,1.0 3,1.0 6,1.0 9,1.0 12,1.0 15,1.0 18,1.0 21,1.0 24,1.0 27,1.0 30,1.0 33,1.0 36,1.0 39,1.0 42,1.0 45,1.0 48,1.0 51,1.0 54,4.77 57,15.54 60,2.08 63,6.38 66,4.77 69,2.08 72,12.85 75,9.62 78,6.38 81,3.15 84,3.69 87,2.62 90,8.0 93,14.46 96,6.38 99,5.31 102,3.69 105,4.77 108,11.77 111,6.92 114,12.31 117,6.38 120,3.69 123,1.0 126,29.0 129,18.23 132,11.77 135,8.0 138,9.62 141,2.08 144,1.0 147,1.0 150,1.0 153,1.0 " fill="none" stroke="white" stroke-width="2" />
</svg>