<svg viewBox="0 0 155 30" xmlns="http://www.w3.org/2000/svg">
  <polyline transform="translate(0, 28) scale(1,-1)"
                  points="0,1.54 3,3.15 6,29.0 9,13.38 12,5.85 15,2.62 18,5.31 21,1.0 24,1.0 27,1.0 30,1.0 33,4.23 36,2.08 39,4.23 42,1.54 45,1.0 48,1.0 51,1.54 54,4.23 57,3.69 60,3.15 63,2.08 66,4.77 69,2.08 72,2.08 75,3.69 78,3.69 81,3.15 84,2.08 87,2.08 90,1.54 93,1.54 96,2.62 99,3.15 102,1.54 105,3.15 108,2.62 111,5.31 114,13.38 117,6.38 120,5.31 123,14.46 126,17.69 129,10.69 132,2.62 135,5.85 138,12.31 141,6.38 144,1.54 147,1.0 150,1.0 153,4.23 " fill="none" stroke="white" stroke-width="2" />
</svg>