<svg viewBox="0 0 155 30" xmlns="http://www.w3.org/2000/svg">
  <polyline transform="translate(0, 28) scale(1,-1)"
                  points="0,1.0 3,1.0 6,1.0 9,1.0 12,1.0 15,1.0 18,1.0 21,1.0 24,1.0 27,1.0 30,1.0 33,1.0 36,1.0 39,1.0 42,1.0 45,1.0 48,6.13 51,12.67 54,1.0 57,6.6 60,3.8 63,5.2 66,10.8 69,5.67 72,5.2 75,3.8 78,3.33 81,1.47 84,10.33 87,12.67 90,2.4 93,4.73 96,4.73 99,5.2 102,8.93 105,8.469999999999999 108,11.73 111,2.4 114,2.4 117,1.47 120,29.0 123,11.73 126,15.0 129,4.73 132,6.6 135,1.47 138,1.0 141,1.0 144,1.0 147,1.0 150,1.0 153,1.0 " fill="none" stroke="white" stroke-width="2" />
</svg>