<svg viewBox="0 0 155 30" xmlns="http://www.w3.org/2000/svg">
  <polyline transform="translate(0, 28) scale(1,-1)"
                  points="0,1.0 3,1.0 6,1.0 9,1.0 12,1.0 15,1.0 18,1.0 21,1.0 24,1.0 27,1.0 30,1.0 33,1.0 36,1.0 39,1.0 42,1.0 45,1.0 48,4.77 51,15.54 54,2.08 57,6.38 60,4.77 63,2.08 66,12.85 69,9.62 72,6.38 75,3.15 78,3.69 81,2.62 84,8.0 87,14.46 90,6.38 93,5.31 96,3.69 99,4.77 102,11.77 105,6.92 108,12.31 111,6.38 114,3.69 117,1.0 120,29.0 123,18.23 126,11.77 129,8.0 132,9.62 135,2.08 138,1.0 141,1.0 144,1.0 147,1.0 150,1.0 153,1.0 " fill="none" stroke="white" stroke-width="2" />
</svg>