<svg viewBox="0 0 155 30" xmlns="http://www.w3.org/2000/svg">
  <polyline transform="translate(0, 28) scale(1,-1)"
                  points="0,1.0 3,1.0 6,1.0 9,1.0 12,1.0 15,1.0 18,1.0 21,1.0 24,1.0 27,1.0 30,1.0 33,1.0 36,1.0 39,8.34 42,10.18 45,1.0 48,6.51 51,3.75 54,6.97 57,8.8 60,6.51 63,5.13 66,2.84 69,3.3 72,1.46 75,11.1 78,12.02 81,4.21 84,2.38 87,5.59 90,8.34 93,6.51 96,7.43 99,10.64 102,3.3 105,1.46 108,2.38 111,29.0 114,10.64 117,15.69 120,6.97 123,3.3 126,1.0 129,1.0 132,1.0 135,1.0 138,1.0 141,1.0 144,1.0 147,1.0 150,1.0 153,1.0 " fill="none" stroke="white" stroke-width="2" />
</svg>