<svg viewBox="0 0 155 30" xmlns="http://www.w3.org/2000/svg">
  <polyline transform="translate(0, 28) scale(1,-1)"
                  points="0,3.95 3,23.11 6,29.0 9,12.79 12,3.21 15,6.89 18,1.0 21,1.0 24,1.0 27,1.0 30,5.42 33,1.74 36,5.42 39,2.4699999999999998 42,1.0 45,1.0 48,1.74 51,3.95 54,4.68 57,4.68 60,3.21 63,5.42 66,1.74 69,3.95 72,3.21 75,5.42 78,3.21 81,3.21 84,2.4699999999999998 87,1.74 90,1.74 93,3.21 96,4.68 99,1.0 102,3.95 105,3.95 108,6.16 111,18.68 114,8.370000000000001 117,1.74 120,21.63 123,17.21 126,16.47 129,8.370000000000001 132,9.84 135,12.05 138,6.16 141,7.63 144,1.74 147,1.0 150,4.68 153,8.370000000000001 " fill="none" stroke="white" stroke-width="2" />
</svg>