<svg viewBox="0 0 155 30" xmlns="http://www.w3.org/2000/svg">
  <polyline transform="translate(0, 28) scale(1,-1)"
                  points="0,1.0 3,1.0 6,1.0 9,1.0 12,1.0 15,1.0 18,1.0 21,1.0 24,1.0 27,1.0 30,1.0 33,1.0 36,1.0 39,1.0 42,1.0 45,1.0 48,1.0 51,1.0 54,1.0 57,1.0 60,1.0 63,16.47 66,12.05 69,1.0 72,10.58 75,4.68 78,13.53 81,11.32 84,11.32 87,5.42 90,4.68 93,3.95 96,2.4699999999999998 99,19.42 102,16.47 105,5.42 108,3.21 111,8.370000000000001 114,13.53 117,9.84 120,13.53 123,13.53 126,4.68 129,1.74 132,20.16 135,29.0 138,18.68 141,22.37 144,12.05 147,3.21 150,1.0 153,1.0 " fill="none" stroke="white" stroke-width="2" />
</svg>