<svg viewBox="0 0 155 30" xmlns="http://www.w3.org/2000/svg">
  <polyline transform="translate(0, 28) scale(1,-1)"
                  points="0,1.0 3,1.0 6,1.0 9,1.0 12,1.0 15,1.0 18,1.0 21,1.0 24,1.0 27,1.0 30,1.0 33,1.0 36,1.0 39,5.75 42,12.39 45,1.95 48,6.22 51,4.32 54,4.32 57,11.44 60,5.75 63,5.75 66,2.9 69,3.85 72,1.95 75,10.02 78,11.92 81,3.85 84,4.8 87,3.37 90,4.32 93,10.49 96,8.59 99,10.02 102,4.32 105,3.37 108,1.0 111,29.0 114,12.86 117,10.97 120,6.69 123,8.59 126,1.95 129,1.0 132,1.0 135,1.0 138,1.0 141,1.0 144,1.0 147,1.0 150,1.0 153,1.0 " fill="none" stroke="white" stroke-width="2" />
</svg>