<svg viewBox="0 0 155 30" xmlns="http://www.w3.org/2000/svg">
  <polyline transform="translate(0, 28) scale(1,-1)"
                  points="0,1.0 3,1.0 6,1.0 9,1.0 12,1.0 15,1.0 18,1.0 21,1.0 24,1.0 27,1.0 30,1.0 33,1.0 36,1.0 39,1.0 42,1.0 45,8.34 48,10.18 51,1.0 54,6.51 57,3.75 60,6.97 63,8.8 66,6.51 69,5.13 72,2.84 75,3.3 78,1.46 81,11.1 84,12.02 87,4.21 90,2.38 93,5.59 96,8.34 99,6.51 102,7.43 105,10.64 108,3.3 111,1.46 114,2.38 117,29.0 120,10.64 123,15.69 126,6.97 129,3.3 132,1.0 135,1.0 138,1.0 141,1.0 144,1.0 147,1.0 150,1.0 153,1.0 " fill="none" stroke="white" stroke-width="2" />
</svg>