<svg viewBox="0 0 155 30" xmlns="http://www.w3.org/2000/svg">
  <polyline transform="translate(0, 28) scale(1,-1)"
                  points="0,1.0 3,1.0 6,1.0 9,1.0 12,1.0 15,1.0 18,1.0 21,1.0 24,1.0 27,1.0 30,1.0 33,1.0 36,1.0 39,2.79 42,17.09 45,4.57 48,2.79 51,8.74 54,2.19 57,14.7 60,9.34 63,6.96 66,4.57 69,3.98 72,2.79 75,6.36 78,17.68 81,7.55 84,4.57 87,5.17 90,4.57 93,13.51 96,5.17 99,14.11 102,8.74 105,3.98 108,1.0 111,29.0 114,20.66 117,14.11 120,9.94 123,10.53 126,2.19 129,1.0 132,1.0 135,1.0 138,1.0 141,1.0 144,1.0 147,1.0 150,1.0 153,1.0 " fill="none" stroke="white" stroke-width="2" />
</svg>