<svg viewBox="0 0 155 30" xmlns="http://www.w3.org/2000/svg">
  <polyline transform="translate(0, 28) scale(1,-1)"
                  points="0,21.77 3,9.13 6,3.71 9,8.23 12,1.0 15,1.0 18,1.0 21,1.0 24,6.42 27,2.81 30,6.42 33,1.9 36,1.0 39,1.0 42,1.9 45,6.42 48,5.52 51,4.609999999999999 54,2.81 57,7.32 60,2.81 63,2.81 66,5.52 69,5.52 72,4.609999999999999 75,2.81 78,2.81 81,1.9 84,1.9 87,3.71 90,4.609999999999999 93,1.9 96,4.609999999999999 99,3.71 102,8.23 105,21.77 108,10.03 111,8.23 114,23.58 117,29.0 120,17.26 123,3.71 126,9.13 129,19.97 132,10.03 135,1.9 138,1.0 141,1.0 144,6.42 147,25.39 150,7.32 153,6.42 " fill="none" stroke="white" stroke-width="2" />
</svg>