<svg viewBox="0 0 155 30" xmlns="http://www.w3.org/2000/svg">
  <polyline transform="translate(0, 28) scale(1,-1)"
                  points="0,1.0 3,1.0 6,1.0 9,1.0 12,1.0 15,1.0 18,1.0 21,1.0 24,1.0 27,1.0 30,1.0 33,1.0 36,1.0 39,1.0 42,1.0 45,1.0 48,1.0 51,1.0 54,1.0 57,1.0 60,1.0 63,6.13 66,12.67 69,1.0 72,6.6 75,3.8 78,5.2 81,10.8 84,5.67 87,5.2 90,3.8 93,3.33 96,1.47 99,10.33 102,12.67 105,2.4 108,4.73 111,4.73 114,5.2 117,8.93 120,8.469999999999999 123,11.73 126,2.4 129,2.4 132,1.47 135,29.0 138,11.73 141,15.0 144,4.73 147,6.6 150,1.47 153,1.0 " fill="none" stroke="white" stroke-width="2" />
</svg>