<svg viewBox="0 0 155 30" xmlns="http://www.w3.org/2000/svg">
  <polyline transform="translate(0, 28) scale(1,-1)"
                  points="0,1.0 3,1.0 6,1.0 9,1.0 12,1.0 15,1.0 18,1.0 21,1.0 24,1.0 27,1.0 30,1.0 33,1.0 36,1.0 39,1.0 42,1.0 45,1.0 48,1.0 51,1.0 54,1.0 57,1.0 60,16.47 63,12.05 66,1.0 69,10.58 72,4.68 75,13.53 78,11.32 81,11.32 84,5.42 87,4.68 90,3.95 93,2.4699999999999998 96,19.42 99,16.47 102,5.42 105,3.21 108,8.370000000000001 111,13.53 114,9.84 117,13.53 120,13.53 123,4.68 126,1.74 129,20.16 132,29.0 135,18.68 138,22.37 141,12.05 144,3.21 147,1.0 150,1.0 153,1.0 " fill="none" stroke="white" stroke-width="2" />
</svg>