<svg viewBox="0 0 155 30" xmlns="http://www.w3.org/2000/svg">
  <polyline transform="translate(0, 28) scale(1,-1)"
                  points="0,29.0 3,12.79 6,3.21 9,6.89 12,1.0 15,1.0 18,1.0 21,1.0 24,5.42 27,1.74 30,5.42 33,2.4699999999999998 36,1.0 39,1.0 42,1.74 45,3.95 48,4.68 51,4.68 54,3.21 57,5.42 60,1.74 63,3.95 66,3.21 69,5.42 72,3.21 75,3.21 78,2.4699999999999998 81,1.74 84,1.74 87,3.21 90,4.68 93,1.0 96,3.95 99,3.95 102,6.16 105,18.68 108,8.370000000000001 111,1.74 114,21.63 117,17.21 120,16.47 123,8.370000000000001 126,9.84 129,12.05 132,6.16 135,7.63 138,1.74 141,1.0 144,4.68 147,8.370000000000001 150,18.68 153,5.42 " fill="none" stroke="white" stroke-width="2" />
</svg>