<svg viewBox="0 0 155 30" xmlns="http://www.w3.org/2000/svg">
  <polyline transform="translate(0, 28) scale(1,-1)"
                  points="0,6.09 3,1.0 6,1.0 9,1.0 12,1.0 15,6.09 18,2.7 21,6.09 24,1.85 27,1.0 30,1.0 33,1.85 36,7.79 39,4.390000000000001 42,4.390000000000001 45,2.7 48,6.09 51,2.7 54,2.7 57,6.09 60,5.24 63,4.390000000000001 66,1.85 69,2.7 72,1.85 75,2.7 78,2.7 81,4.390000000000001 84,4.390000000000001 87,2.7 90,5.24 93,5.24 96,23.91 99,6.09 102,8.64 105,22.21 108,29.0 111,13.73 114,3.55 117,13.73 120,13.73 123,9.48 126,1.85 129,1.0 132,2.7 135,4.390000000000001 138,26.45 141,4.390000000000001 144,6.09 147,14.58 150,1.0 153,11.18 " fill="none" stroke="white" stroke-width="2" />
</svg>