<svg viewBox="0 0 155 30" xmlns="http://www.w3.org/2000/svg">
  <polyline transform="translate(0, 28) scale(1,-1)"
                  points="0,1.0 3,1.0 6,1.0 9,1.0 12,1.0 15,1.0 18,1.0 21,1.0 24,1.0 27,1.0 30,1.0 33,1.0 36,1.0 39,1.0 42,1.0 45,1.0 48,1.0 51,1.0 54,1.0 57,1.0 60,1.0 63,4.77 66,15.54 69,2.08 72,6.38 75,4.77 78,2.08 81,12.85 84,9.62 87,6.38 90,3.15 93,3.69 96,2.62 99,8.0 102,14.46 105,6.38 108,5.31 111,3.69 114,4.77 117,11.77 120,6.92 123,12.31 126,6.38 129,3.69 132,1.0 135,29.0 138,18.23 141,11.77 144,8.0 147,9.62 150,2.08 153,1.0 " fill="none" stroke="white" stroke-width="2" />
</svg>