<svg viewBox="0 0 155 30" xmlns="http://www.w3.org/2000/svg">
  <polyline transform="translate(0, 28) scale(1,-1)"
                  points="0,1.0 3,1.0 6,1.0 9,1.0 12,1.0 15,1.0 18,1.0 21,1.0 24,1.0 27,1.0 30,1.0 33,1.0 36,1.0 39,1.0 42,1.0 45,1.0 48,1.0 51,1.0 54,1.0 57,1.0 60,17.67 63,8.33 66,2.33 69,8.33 72,4.33 75,15.67 78,7.67 81,10.33 84,5.0 87,3.67 90,3.67 93,5.0 96,19.0 99,11.0 102,5.0 105,3.0 108,8.33 111,13.67 114,7.0 117,15.0 120,9.67 123,4.33 126,1.67 129,29.0 132,17.67 135,19.67 138,15.67 141,11.0 144,3.0 147,1.0 150,1.0 153,1.0 " fill="none" stroke="white" stroke-width="2" />
</svg>