<svg viewBox="0 0 155 30" xmlns="http://www.w3.org/2000/svg">
  <polyline transform="translate(0, 28) scale(1,-1)"
                  points="0,1.0 3,1.0 6,1.0 9,1.0 12,1.0 15,1.0 18,1.0 21,1.0 24,1.0 27,1.0 30,1.0 33,1.0 36,1.0 39,1.0 42,16.47 45,12.05 48,1.0 51,10.58 54,4.68 57,13.53 60,11.32 63,11.32 66,5.42 69,4.68 72,3.95 75,2.4699999999999998 78,19.42 81,16.47 84,5.42 87,3.21 90,8.370000000000001 93,13.53 96,9.84 99,13.53 102,13.53 105,4.68 108,1.74 111,20.16 114,29.0 117,18.68 120,22.37 123,12.05 126,3.21 129,1.0 132,1.0 135,1.0 138,1.0 141,1.0 144,1.0 147,1.0 150,1.0 153,1.0 " fill="none" stroke="white" stroke-width="2" />
</svg>