<svg viewBox="0 0 155 30" xmlns="http://www.w3.org/2000/svg">
  <polyline transform="translate(0, 28) scale(1,-1)"
                  points="0,2.56 3,29.0 6,15.0 9,1.52 12,3.59 15,4.109999999999999 18,1.0 21,1.0 24,1.0 27,1.0 30,4.109999999999999 33,2.04 36,4.109999999999999 39,1.52 42,1.0 45,1.0 48,1.52 51,5.15 54,3.07 57,3.07 60,2.04 63,4.109999999999999 66,2.04 69,2.04 72,4.109999999999999 75,3.59 78,3.07 81,1.52 84,2.04 87,1.52 90,2.04 93,2.04 96,3.07 99,3.07 102,2.04 105,3.59 108,3.59 111,15.0 114,4.109999999999999 117,5.67 120,13.96 123,18.11 126,8.780000000000001 129,2.56 132,8.780000000000001 135,8.780000000000001 138,6.19 141,1.52 144,1.0 147,2.04 150,3.07 153,16.560000000000002 " fill="none" stroke="white" stroke-width="2" />
</svg>