<svg viewBox="0 0 155 30" xmlns="http://www.w3.org/2000/svg">
  <polyline transform="translate(0, 28) scale(1,-1)"
                  points="0,23.91 3,1.85 6,5.24 9,6.09 12,1.0 15,1.0 18,1.0 21,1.0 24,6.09 27,2.7 30,6.09 33,1.85 36,1.0 39,1.0 42,1.85 45,7.79 48,4.390000000000001 51,4.390000000000001 54,2.7 57,6.09 60,2.7 63,2.7 66,6.09 69,5.24 72,4.390000000000001 75,1.85 78,2.7 81,1.85 84,2.7 87,2.7 90,4.390000000000001 93,4.390000000000001 96,2.7 99,5.24 102,5.24 105,23.91 108,6.09 111,8.64 114,22.21 117,29.0 120,13.73 123,3.55 126,13.73 129,13.73 132,9.48 135,1.85 138,1.0 141,2.7 144,4.390000000000001 147,26.45 150,4.390000000000001 153,6.09 " fill="none" stroke="white" stroke-width="2" />
</svg>