<svg viewBox="0 0 155 30" xmlns="http://www.w3.org/2000/svg">
  <polyline transform="translate(0, 28) scale(1,-1)"
                  points="0,2.56 3,2.56 6,3.07 9,2.56 12,29.0 15,15.0 18,1.52 21,3.59 24,4.109999999999999 27,1.0 30,1.0 33,1.0 36,1.0 39,4.109999999999999 42,2.04 45,4.109999999999999 48,1.52 51,1.0 54,1.0 57,1.52 60,5.15 63,3.07 66,3.07 69,2.04 72,4.109999999999999 75,2.04 78,2.04 81,4.109999999999999 84,3.59 87,3.07 90,1.52 93,2.04 96,1.52 99,2.04 102,2.04 105,3.07 108,3.07 111,2.04 114,3.59 117,3.59 120,15.0 123,4.109999999999999 126,5.67 129,13.96 132,18.11 135,8.780000000000001 138,2.56 141,8.780000000000001 144,8.780000000000001 147,6.19 150,1.52 153,1.0 " fill="none" stroke="white" stroke-width="2" />
</svg>