<svg viewBox="0 0 155 30" xmlns="http://www.w3.org/2000/svg">
  <polyline transform="translate(0, 28) scale(1,-1)"
                  points="0,5.24 3,6.09 6,1.0 9,1.0 12,1.0 15,1.0 18,6.09 21,2.7 24,6.09 27,1.85 30,1.0 33,1.0 36,1.85 39,7.79 42,4.390000000000001 45,4.390000000000001 48,2.7 51,6.09 54,2.7 57,2.7 60,6.09 63,5.24 66,4.390000000000001 69,1.85 72,2.7 75,1.85 78,2.7 81,2.7 84,4.390000000000001 87,4.390000000000001 90,2.7 93,5.24 96,5.24 99,23.91 102,6.09 105,8.64 108,22.21 111,29.0 114,13.73 117,3.55 120,13.73 123,13.73 126,9.48 129,1.85 132,1.0 135,2.7 138,4.390000000000001 141,26.45 144,4.390000000000001 147,6.09 150,14.58 153,1.0 " fill="none" stroke="white" stroke-width="2" />
</svg>