<svg viewBox="0 0 155 30" xmlns="http://www.w3.org/2000/svg">
  <polyline transform="translate(0, 28) scale(1,-1)"
                  points="0,7.4 3,1.0 6,1.0 9,1.0 12,1.0 15,1.0 18,5.8 21,6.6 24,2.6 27,1.0 30,1.0 33,1.0 36,4.2 39,5.0 42,5.8 45,3.4 48,2.6 51,5.0 54,4.2 57,1.8 60,6.6 63,4.2 66,3.4 69,1.8 72,2.6 75,1.8 78,2.6 81,4.2 84,2.6 87,4.2 90,2.6 93,7.4 96,5.0 99,24.2 102,1.8 105,9.8 108,19.4 111,29.0 114,11.4 117,4.2 120,13.0 123,12.2 126,9.0 129,1.8 132,1.0 135,2.6 138,4.2 141,26.6 144,5.0 147,5.0 150,12.2 153,5.8 " fill="none" stroke="white" stroke-width="2" />
</svg>