<svg viewBox="0 0 155 30" xmlns="http://www.w3.org/2000/svg">
  <polyline transform="translate(0, 28) scale(1,-1)"
                  points="0,2.4 3,2.87 6,29.0 9,10.8 12,2.4 15,3.33 18,2.4 21,1.0 24,1.0 27,1.0 30,1.0 33,3.8 36,2.87 39,3.33 42,1.0 45,1.0 48,1.0 51,1.47 54,4.73 57,3.33 60,2.4 63,1.9300000000000002 66,3.8 69,1.9300000000000002 72,2.4 75,3.8 78,2.87 81,2.87 84,1.47 87,1.9300000000000002 90,1.47 93,1.9300000000000002 96,2.4 99,2.4 102,2.87 105,1.9300000000000002 108,4.27 111,3.8 114,14.07 117,1.9300000000000002 120,6.13 123,11.73 126,16.4 129,8.0 132,2.4 135,8.469999999999999 138,7.53 141,5.67 144,1.47 147,1.0 150,1.9300000000000002 153,2.87 " fill="none" stroke="white" stroke-width="2" />
</svg>