<svg viewBox="0 0 155 30" xmlns="http://www.w3.org/2000/svg">
  <polyline transform="translate(0, 28) scale(1,-1)"
                  points="0,3.21 3,3.95 6,23.11 9,29.0 12,12.79 15,3.21 18,6.89 21,1.0 24,1.0 27,1.0 30,1.0 33,5.42 36,1.74 39,5.42 42,2.4699999999999998 45,1.0 48,1.0 51,1.74 54,3.95 57,4.68 60,4.68 63,3.21 66,5.42 69,1.74 72,3.95 75,3.21 78,5.42 81,3.21 84,3.21 87,2.4699999999999998 90,1.74 93,1.74 96,3.21 99,4.68 102,1.0 105,3.95 108,3.95 111,6.16 114,18.68 117,8.370000000000001 120,1.74 123,21.63 126,17.21 129,16.47 132,8.370000000000001 135,9.84 138,12.05 141,6.16 144,7.63 147,1.74 150,1.0 153,4.68 " fill="none" stroke="white" stroke-width="2" />
</svg>