<svg viewBox="0 0 155 30" xmlns="http://www.w3.org/2000/svg">
  <polyline transform="translate(0, 28) scale(1,-1)"
                  points="0,1.0 3,1.0 6,1.0 9,1.0 12,1.0 15,1.0 18,1.0 21,1.0 24,1.0 27,1.0 30,1.0 33,1.0 36,1.0 39,1.0 42,1.0 45,1.0 48,1.0 51,1.0 54,1.0 57,1.0 60,8.34 63,10.18 66,1.0 69,6.51 72,3.75 75,6.97 78,8.8 81,6.51 84,5.13 87,2.84 90,3.3 93,1.46 96,11.1 99,12.02 102,4.21 105,2.38 108,5.59 111,8.34 114,6.51 117,7.43 120,10.64 123,3.3 126,1.46 129,2.38 132,29.0 135,10.64 138,15.69 141,6.97 144,3.3 147,1.0 150,1.0 153,1.0 " fill="none" stroke="white" stroke-width="2" />
</svg>