<svg viewBox="0 0 155 30" xmlns="http://www.w3.org/2000/svg">
  <polyline transform="translate(0, 28) scale(1,-1)"
                  points="0,1.0 3,1.0 6,1.0 9,1.0 12,1.0 15,1.0 18,1.0 21,1.0 24,1.0 27,1.0 30,1.0 33,1.0 36,1.0 39,1.0 42,1.0 45,17.67 48,8.33 51,2.33 54,8.33 57,4.33 60,15.67 63,7.67 66,10.33 69,5.0 72,3.67 75,3.67 78,5.0 81,19.0 84,11.0 87,5.0 90,3.0 93,8.33 96,13.67 99,7.0 102,15.0 105,9.67 108,4.33 111,1.67 114,29.0 117,17.67 120,19.67 123,15.67 126,11.0 129,3.0 132,1.0 135,1.0 138,1.0 141,1.0 144,1.0 147,1.0 150,1.0 153,1.0 " fill="none" stroke="white" stroke-width="2" />
</svg>