<svg viewBox="0 0 155 30" xmlns="http://www.w3.org/2000/svg">
  <polyline transform="translate(0, 28) scale(1,-1)"
                  points="0,14.69 3,29.0 6,11.58 9,2.87 12,5.98 15,1.0 18,1.0 21,1.0 24,1.0 27,1.0 30,4.73 33,5.36 36,2.24 39,1.0 42,1.0 45,1.62 48,3.49 51,4.109999999999999 54,4.109999999999999 57,2.87 60,2.24 63,4.109999999999999 66,3.49 69,2.24 72,5.36 75,2.87 78,2.87 81,2.24 84,1.62 87,1.62 90,2.24 93,4.109999999999999 96,1.62 99,3.49 102,2.24 105,5.98 108,5.98 111,17.8 114,1.0 117,14.07 120,10.96 123,22.78 126,7.22 129,3.49 132,10.96 135,9.09 138,7.22 141,1.62 144,1.0 147,3.49 150,5.36 153,17.8 " fill="none" stroke="white" stroke-width="2" />
</svg>