<svg viewBox="0 0 155 30" xmlns="http://www.w3.org/2000/svg">
  <polyline transform="translate(0, 28) scale(1,-1)"
                  points="0,1.0 3,1.0 6,1.0 9,1.0 12,1.0 15,1.0 18,1.0 21,1.0 24,1.0 27,1.0 30,1.0 33,1.0 36,1.0 39,1.0 42,1.0 45,1.0 48,1.0 51,1.0 54,1.0 57,2.79 60,17.09 63,4.57 66,2.79 69,8.74 72,2.19 75,14.7 78,9.34 81,6.96 84,4.57 87,3.98 90,2.79 93,6.36 96,17.68 99,7.55 102,4.57 105,5.17 108,4.57 111,13.51 114,5.17 117,14.11 120,8.74 123,3.98 126,1.0 129,29.0 132,20.66 135,14.11 138,9.94 141,10.53 144,2.19 147,1.0 150,1.0 153,1.0 " fill="none" stroke="white" stroke-width="2" />
</svg>