


  <svg width="155" height="30" aria-hidden="true">
    <defs>
      <linearGradient id="gradient-1058523058" x1="0" x2="0" y1="1" y2="0">
        <stop offset="0%" stop-color="var(--contribution-default-bgColor-1)"></stop>
        <stop offset="10%" stop-color="var(--contribution-default-bgColor-2)"></stop>
        <stop offset="25%" stop-color="var(--contribution-default-bgColor-3)"></stop>
        <stop offset="50%" stop-color="var(--contribution-default-bgColor-4)"></stop>
      </linearGradient>
      <mask id="sparkline-1058523058" x="0" y="0" width="155" height="28" >
        <polyline transform="translate(0, 28) scale(1,-1)"
                  points="0,1 3,1 6,1 9,1 12,1 15,1 18,1 21,1 24,1 27,1 30,1 33,1 36,1 39,1 42,1 45,1 48,1 51,1 54,1 57,1 60,5 63,4 66,2 69,3 72,2 75,2 78,1 81,2 84,3 87,3 90,2 93,7 96,1 99,2 102,1 105,1 108,1 111,4 114,4 117,4 120,1 123,1 126,1 129,3 132,3 135,1 138,1 141,2 144,1 147,2 150,2 153,1 " fill="transparent" stroke="#8cc665" stroke-width="2"></polyline>
      </mask>
    </defs>

    <g transform="translate(0, -9)">
      <rect x="0" y="-2" width="155" height="30"
            style="stroke: none; fill: url(#gradient-1058523058); mask: url(#sparkline-1058523058)"></rect>
    </g>
  </svg>
