


  <svg width="155" height="30" aria-hidden="true">
    <defs>
      <linearGradient id="gradient-724769282" x1="0" x2="0" y1="1" y2="0">
        <stop offset="0%" stop-color="var(--contribution-default-bgColor-1)"></stop>
        <stop offset="10%" stop-color="var(--contribution-default-bgColor-2)"></stop>
        <stop offset="25%" stop-color="var(--contribution-default-bgColor-3)"></stop>
        <stop offset="50%" stop-color="var(--contribution-default-bgColor-4)"></stop>
      </linearGradient>
      <mask id="sparkline-724769282" x="0" y="0" width="155" height="28" >
        <polyline transform="translate(0, 28) scale(1,-1)"
                  points="0,4.23 3,2.62 6,1.54 9,3.15 12,29.0 15,13.38 18,5.85 21,2.62 24,5.31 27,1.0 30,1.0 33,1.0 36,1.0 39,4.23 42,2.08 45,4.23 48,1.54 51,1.0 54,1.0 57,1.54 60,4.23 63,3.69 66,3.15 69,2.08 72,4.77 75,2.08 78,2.08 81,3.69 84,3.69 87,3.15 90,2.08 93,2.08 96,1.54 99,1.54 102,2.62 105,3.15 108,1.54 111,3.15 114,2.62 117,5.31 120,13.38 123,6.38 126,5.31 129,14.46 132,17.69 135,10.69 138,2.62 141,5.85 144,12.31 147,6.38 150,1.54 153,1.0 " fill="transparent" stroke="#8cc665" stroke-width="2"></polyline>
      </mask>
    </defs>

    <g transform="translate(0, 2.0)">
      <rect x="0" y="-2" width="155" height="30"
            style="stroke: none; fill: url(#gradient-724769282); mask: url(#sparkline-724769282)"></rect>
    </g>
  </svg>
