


  <svg width="155" height="30" aria-hidden="true">
    <defs>
      <linearGradient id="gradient-1067904176" x1="0" x2="0" y1="1" y2="0">
        <stop offset="0%" stop-color="var(--contribution-default-bgColor-1)"></stop>
        <stop offset="10%" stop-color="var(--contribution-default-bgColor-2)"></stop>
        <stop offset="25%" stop-color="var(--contribution-default-bgColor-3)"></stop>
        <stop offset="50%" stop-color="var(--contribution-default-bgColor-4)"></stop>
      </linearGradient>
      <mask id="sparkline-1067904176" x="0" y="0" width="155" height="28" >
        <polyline transform="translate(0, 28) scale(1,-1)"
                  points="0,1.0 3,1.0 6,1.0 9,1.0 12,1.0 15,1.0 18,1.0 21,1.0 24,1.0 27,1.0 30,1.0 33,1.0 36,1.0 39,1.0 42,1.0 45,1.0 48,1.0 51,1.0 54,1.0 57,1.0 60,1.0 63,1.0 66,16.47 69,12.05 72,1.0 75,10.58 78,4.68 81,13.53 84,11.32 87,11.32 90,5.42 93,4.68 96,3.95 99,2.4699999999999998 102,19.42 105,16.47 108,5.42 111,3.21 114,8.370000000000001 117,13.53 120,9.84 123,13.53 126,13.53 129,4.68 132,1.74 135,20.16 138,29.0 141,18.68 144,22.37 147,12.05 150,3.21 153,1.0 " fill="transparent" stroke="#8cc665" stroke-width="2"></polyline>
      </mask>
    </defs>

    <g transform="translate(0, 2.0)">
      <rect x="0" y="-2" width="155" height="30"
            style="stroke: none; fill: url(#gradient-1067904176); mask: url(#sparkline-1067904176)"></rect>
    </g>
  </svg>
